# SOMATOS-1 Realistic 3D Model: Realistic_Human_Body_1_to_1
# Scale: Metric 1:1, Coordinates: Y-up, Right-Handed
# Anatomic Grounding: Exact Human Dimensions
mtllib human_body_realistic.mtl
o Realistic_Human_Body_1_to_1
v 0.07000 1.36000 0.00000
v 0.06761 1.36000 0.01812
v 0.06062 1.36000 0.03500
v 0.04950 1.36000 0.04950
v 0.03500 1.36000 0.06062
v 0.01812 1.36000 0.06761
v 0.00000 1.36000 0.07000
v -0.01812 1.36000 0.06761
v -0.03500 1.36000 0.06062
v -0.04950 1.36000 0.04950
v -0.06062 1.36000 0.03500
v -0.06761 1.36000 0.01812
v -0.07000 1.36000 0.00000
v -0.06761 1.36000 -0.01812
v -0.06062 1.36000 -0.03500
v -0.04950 1.36000 -0.04950
v -0.03500 1.36000 -0.06062
v -0.01812 1.36000 -0.06761
v -0.00000 1.36000 -0.07000
v 0.01812 1.36000 -0.06761
v 0.03500 1.36000 -0.06062
v 0.04950 1.36000 -0.04950
v 0.06062 1.36000 -0.03500
v 0.06761 1.36000 -0.01812
v 0.18000 1.30000 0.01000
v 0.17387 1.30000 0.04106
v 0.15588 1.30000 0.07000
v 0.12728 1.30000 0.09485
v 0.09000 1.30000 0.11392
v 0.04659 1.30000 0.12591
v 0.00000 1.30000 0.13000
v -0.04659 1.30000 0.12591
v -0.09000 1.30000 0.11392
v -0.12728 1.30000 0.09485
v -0.15588 1.30000 0.07000
v -0.17387 1.30000 0.04106
v -0.18000 1.30000 0.01000
v -0.17387 1.30000 -0.02106
v -0.15588 1.30000 -0.05000
v -0.12728 1.30000 -0.07485
v -0.09000 1.30000 -0.09392
v -0.04659 1.30000 -0.10591
v -0.00000 1.30000 -0.11000
v 0.04659 1.30000 -0.10591
v 0.09000 1.30000 -0.09392
v 0.12728 1.30000 -0.07485
v 0.15588 1.30000 -0.05000
v 0.17387 1.30000 -0.02106
v 0.20000 1.22000 0.02000
v 0.19319 1.22000 0.05623
v 0.17321 1.22000 0.09000
v 0.14142 1.22000 0.11899
v 0.10000 1.22000 0.14124
v 0.05176 1.22000 0.15523
v 0.00000 1.22000 0.16000
v -0.05176 1.22000 0.15523
v -0.10000 1.22000 0.14124
v -0.14142 1.22000 0.11899
v -0.17321 1.22000 0.09000
v -0.19319 1.22000 0.05623
v -0.20000 1.22000 0.02000
v -0.19319 1.22000 -0.01623
v -0.17321 1.22000 -0.05000
v -0.14142 1.22000 -0.07899
v -0.10000 1.22000 -0.10124
v -0.05176 1.22000 -0.11523
v -0.00000 1.22000 -0.12000
v 0.05176 1.22000 -0.11523
v 0.10000 1.22000 -0.10124
v 0.14142 1.22000 -0.07899
v 0.17321 1.22000 -0.05000
v 0.19319 1.22000 -0.01623
v 0.17000 1.10000 0.01000
v 0.16421 1.10000 0.04365
v 0.14722 1.10000 0.07500
v 0.12021 1.10000 0.10192
v 0.08500 1.10000 0.12258
v 0.04400 1.10000 0.13557
v 0.00000 1.10000 0.14000
v -0.04400 1.10000 0.13557
v -0.08500 1.10000 0.12258
v -0.12021 1.10000 0.10192
v -0.14722 1.10000 0.07500
v -0.16421 1.10000 0.04365
v -0.17000 1.10000 0.01000
v -0.16421 1.10000 -0.02365
v -0.14722 1.10000 -0.05500
v -0.12021 1.10000 -0.08192
v -0.08500 1.10000 -0.10258
v -0.04400 1.10000 -0.11557
v -0.00000 1.10000 -0.12000
v 0.04400 1.10000 -0.11557
v 0.08500 1.10000 -0.10258
v 0.12021 1.10000 -0.08192
v 0.14722 1.10000 -0.05500
v 0.16421 1.10000 -0.02365
v 0.15000 0.98000 0.00000
v 0.14489 0.98000 0.03106
v 0.12990 0.98000 0.06000
v 0.10607 0.98000 0.08485
v 0.07500 0.98000 0.10392
v 0.03882 0.98000 0.11591
v 0.00000 0.98000 0.12000
v -0.03882 0.98000 0.11591
v -0.07500 0.98000 0.10392
v -0.10607 0.98000 0.08485
v -0.12990 0.98000 0.06000
v -0.14489 0.98000 0.03106
v -0.15000 0.98000 0.00000
v -0.14489 0.98000 -0.03106
v -0.12990 0.98000 -0.06000
v -0.10607 0.98000 -0.08485
v -0.07500 0.98000 -0.10392
v -0.03882 0.98000 -0.11591
v -0.00000 0.98000 -0.12000
v 0.03882 0.98000 -0.11591
v 0.07500 0.98000 -0.10392
v 0.10607 0.98000 -0.08485
v 0.12990 0.98000 -0.06000
v 0.14489 0.98000 -0.03106
v 0.17000 0.88000 0.00000
v 0.16421 0.88000 0.03623
v 0.14722 0.88000 0.07000
v 0.12021 0.88000 0.09899
v 0.08500 0.88000 0.12124
v 0.04400 0.88000 0.13523
v 0.00000 0.88000 0.14000
v -0.04400 0.88000 0.13523
v -0.08500 0.88000 0.12124
v -0.12021 0.88000 0.09899
v -0.14722 0.88000 0.07000
v -0.16421 0.88000 0.03623
v -0.17000 0.88000 0.00000
v -0.16421 0.88000 -0.03623
v -0.14722 0.88000 -0.07000
v -0.12021 0.88000 -0.09899
v -0.08500 0.88000 -0.12124
v -0.04400 0.88000 -0.13523
v -0.00000 0.88000 -0.14000
v 0.04400 0.88000 -0.13523
v 0.08500 0.88000 -0.12124
v 0.12021 0.88000 -0.09899
v 0.14722 0.88000 -0.07000
v 0.16421 0.88000 -0.03623
v 0.16000 0.78000 0.01000
v 0.15455 0.78000 0.04882
v 0.13856 0.78000 0.08500
v 0.11314 0.78000 0.11607
v 0.08000 0.78000 0.13990
v 0.04141 0.78000 0.15489
v 0.00000 0.78000 0.16000
v -0.04141 0.78000 0.15489
v -0.08000 0.78000 0.13990
v -0.11314 0.78000 0.11607
v -0.13856 0.78000 0.08500
v -0.15455 0.78000 0.04882
v -0.16000 0.78000 0.01000
v -0.15455 0.78000 -0.02882
v -0.13856 0.78000 -0.06500
v -0.11314 0.78000 -0.09607
v -0.08000 0.78000 -0.11990
v -0.04141 0.78000 -0.13489
v -0.00000 0.78000 -0.14000
v 0.04141 0.78000 -0.13489
v 0.08000 0.78000 -0.11990
v 0.11314 0.78000 -0.09607
v 0.13856 0.78000 -0.06500
v 0.15455 0.78000 -0.02882
v -0.14500 1.28000 0.00000
v -0.14995 1.28000 0.02487
v -0.16404 1.28000 0.04596
v -0.18513 1.28000 0.06005
v -0.21000 1.28000 0.06500
v -0.23487 1.28000 0.06005
v -0.25596 1.28000 0.04596
v -0.27005 1.28000 0.02487
v -0.27500 1.28000 0.00000
v -0.27005 1.28000 -0.02487
v -0.25596 1.28000 -0.04596
v -0.23487 1.28000 -0.06005
v -0.21000 1.28000 -0.06500
v -0.18513 1.28000 -0.06005
v -0.16404 1.28000 -0.04596
v -0.14995 1.28000 -0.02487
v -0.16500 1.15000 0.00000
v -0.16919 1.15000 0.02105
v -0.18111 1.15000 0.03889
v -0.19895 1.15000 0.05081
v -0.22000 1.15000 0.05500
v -0.24105 1.15000 0.05081
v -0.25889 1.15000 0.03889
v -0.27081 1.15000 0.02105
v -0.27500 1.15000 0.00000
v -0.27081 1.15000 -0.02105
v -0.25889 1.15000 -0.03889
v -0.24105 1.15000 -0.05081
v -0.22000 1.15000 -0.05500
v -0.19895 1.15000 -0.05081
v -0.18111 1.15000 -0.03889
v -0.16919 1.15000 -0.02105
v -0.17500 0.98000 0.00000
v -0.17843 0.98000 0.01722
v -0.18818 0.98000 0.03182
v -0.20278 0.98000 0.04157
v -0.22000 0.98000 0.04500
v -0.23722 0.98000 0.04157
v -0.25182 0.98000 0.03182
v -0.26157 0.98000 0.01722
v -0.26500 0.98000 0.00000
v -0.26157 0.98000 -0.01722
v -0.25182 0.98000 -0.03182
v -0.23722 0.98000 -0.04157
v -0.22000 0.98000 -0.04500
v -0.20278 0.98000 -0.04157
v -0.18818 0.98000 -0.03182
v -0.17843 0.98000 -0.01722
v -0.18000 0.85000 0.00000
v -0.18304 0.85000 0.01454
v -0.19172 0.85000 0.02687
v -0.20469 0.85000 0.03511
v -0.22000 0.85000 0.03800
v -0.23531 0.85000 0.03511
v -0.24828 0.85000 0.02687
v -0.25696 0.85000 0.01454
v -0.26000 0.85000 0.00000
v -0.25696 0.85000 -0.01454
v -0.24828 0.85000 -0.02687
v -0.23531 0.85000 -0.03511
v -0.22000 0.85000 -0.03800
v -0.20469 0.85000 -0.03511
v -0.19172 0.85000 -0.02687
v -0.18304 0.85000 -0.01454
v -0.18800 0.72000 0.00000
v -0.19044 0.72000 0.00957
v -0.19737 0.72000 0.01768
v -0.20775 0.72000 0.02310
v -0.22000 0.72000 0.02500
v -0.23225 0.72000 0.02310
v -0.24263 0.72000 0.01768
v -0.24956 0.72000 0.00957
v -0.25200 0.72000 0.00000
v -0.24956 0.72000 -0.00957
v -0.24263 0.72000 -0.01768
v -0.23225 0.72000 -0.02310
v -0.22000 0.72000 -0.02500
v -0.20775 0.72000 -0.02310
v -0.19737 0.72000 -0.01768
v -0.19044 0.72000 -0.00957
v -0.18200 0.60000 0.00000
v -0.18489 0.60000 0.00689
v -0.19313 0.60000 0.01273
v -0.20546 0.60000 0.01663
v -0.22000 0.60000 0.01800
v -0.23454 0.60000 0.01663
v -0.24687 0.60000 0.01273
v -0.25511 0.60000 0.00689
v -0.25800 0.60000 0.00000
v -0.25511 0.60000 -0.00689
v -0.24687 0.60000 -0.01273
v -0.23454 0.60000 -0.01663
v -0.22000 0.60000 -0.01800
v -0.20546 0.60000 -0.01663
v -0.19313 0.60000 -0.01273
v -0.18489 0.60000 -0.00689
v 0.27500 1.28000 0.00000
v 0.27005 1.28000 0.02487
v 0.25596 1.28000 0.04596
v 0.23487 1.28000 0.06005
v 0.21000 1.28000 0.06500
v 0.18513 1.28000 0.06005
v 0.16404 1.28000 0.04596
v 0.14995 1.28000 0.02487
v 0.14500 1.28000 0.00000
v 0.14995 1.28000 -0.02487
v 0.16404 1.28000 -0.04596
v 0.18513 1.28000 -0.06005
v 0.21000 1.28000 -0.06500
v 0.23487 1.28000 -0.06005
v 0.25596 1.28000 -0.04596
v 0.27005 1.28000 -0.02487
v 0.27500 1.15000 0.00000
v 0.27081 1.15000 0.02105
v 0.25889 1.15000 0.03889
v 0.24105 1.15000 0.05081
v 0.22000 1.15000 0.05500
v 0.19895 1.15000 0.05081
v 0.18111 1.15000 0.03889
v 0.16919 1.15000 0.02105
v 0.16500 1.15000 0.00000
v 0.16919 1.15000 -0.02105
v 0.18111 1.15000 -0.03889
v 0.19895 1.15000 -0.05081
v 0.22000 1.15000 -0.05500
v 0.24105 1.15000 -0.05081
v 0.25889 1.15000 -0.03889
v 0.27081 1.15000 -0.02105
v 0.26500 0.98000 0.00000
v 0.26157 0.98000 0.01722
v 0.25182 0.98000 0.03182
v 0.23722 0.98000 0.04157
v 0.22000 0.98000 0.04500
v 0.20278 0.98000 0.04157
v 0.18818 0.98000 0.03182
v 0.17843 0.98000 0.01722
v 0.17500 0.98000 0.00000
v 0.17843 0.98000 -0.01722
v 0.18818 0.98000 -0.03182
v 0.20278 0.98000 -0.04157
v 0.22000 0.98000 -0.04500
v 0.23722 0.98000 -0.04157
v 0.25182 0.98000 -0.03182
v 0.26157 0.98000 -0.01722
v 0.26000 0.85000 0.00000
v 0.25696 0.85000 0.01454
v 0.24828 0.85000 0.02687
v 0.23531 0.85000 0.03511
v 0.22000 0.85000 0.03800
v 0.20469 0.85000 0.03511
v 0.19172 0.85000 0.02687
v 0.18304 0.85000 0.01454
v 0.18000 0.85000 0.00000
v 0.18304 0.85000 -0.01454
v 0.19172 0.85000 -0.02687
v 0.20469 0.85000 -0.03511
v 0.22000 0.85000 -0.03800
v 0.23531 0.85000 -0.03511
v 0.24828 0.85000 -0.02687
v 0.25696 0.85000 -0.01454
v 0.25200 0.72000 0.00000
v 0.24956 0.72000 0.00957
v 0.24263 0.72000 0.01768
v 0.23225 0.72000 0.02310
v 0.22000 0.72000 0.02500
v 0.20775 0.72000 0.02310
v 0.19737 0.72000 0.01768
v 0.19044 0.72000 0.00957
v 0.18800 0.72000 0.00000
v 0.19044 0.72000 -0.00957
v 0.19737 0.72000 -0.01768
v 0.20775 0.72000 -0.02310
v 0.22000 0.72000 -0.02500
v 0.23225 0.72000 -0.02310
v 0.24263 0.72000 -0.01768
v 0.24956 0.72000 -0.00957
v 0.25800 0.60000 0.00000
v 0.25511 0.60000 0.00689
v 0.24687 0.60000 0.01273
v 0.23454 0.60000 0.01663
v 0.22000 0.60000 0.01800
v 0.20546 0.60000 0.01663
v 0.19313 0.60000 0.01273
v 0.18489 0.60000 0.00689
v 0.18200 0.60000 0.00000
v 0.18489 0.60000 -0.00689
v 0.19313 0.60000 -0.01273
v 0.20546 0.60000 -0.01663
v 0.22000 0.60000 -0.01800
v 0.23454 0.60000 -0.01663
v 0.24687 0.60000 -0.01273
v 0.25511 0.60000 -0.00689
v -0.00500 0.76000 0.00000
v -0.01223 0.76000 0.03635
v -0.03282 0.76000 0.06718
v -0.06365 0.76000 0.08777
v -0.10000 0.76000 0.09500
v -0.13635 0.76000 0.08777
v -0.16718 0.76000 0.06718
v -0.18777 0.76000 0.03635
v -0.19500 0.76000 0.00000
v -0.18777 0.76000 -0.03635
v -0.16718 0.76000 -0.06718
v -0.13635 0.76000 -0.08777
v -0.10000 0.76000 -0.09500
v -0.06365 0.76000 -0.08777
v -0.03282 0.76000 -0.06718
v -0.01223 0.76000 -0.03635
v -0.02000 0.60000 0.00000
v -0.02609 0.60000 0.03061
v -0.04343 0.60000 0.05657
v -0.06939 0.60000 0.07391
v -0.10000 0.60000 0.08000
v -0.13061 0.60000 0.07391
v -0.15657 0.60000 0.05657
v -0.17391 0.60000 0.03061
v -0.18000 0.60000 0.00000
v -0.17391 0.60000 -0.03061
v -0.15657 0.60000 -0.05657
v -0.13061 0.60000 -0.07391
v -0.10000 0.60000 -0.08000
v -0.06939 0.60000 -0.07391
v -0.04343 0.60000 -0.05657
v -0.02609 0.60000 -0.03061
v -0.04000 0.42000 0.01000
v -0.04457 0.42000 0.03220
v -0.05757 0.42000 0.05101
v -0.07704 0.42000 0.06359
v -0.10000 0.42000 0.06800
v -0.12296 0.42000 0.06359
v -0.14243 0.42000 0.05101
v -0.15543 0.42000 0.03220
v -0.16000 0.42000 0.01000
v -0.15543 0.42000 -0.01220
v -0.14243 0.42000 -0.03101
v -0.12296 0.42000 -0.04359
v -0.10000 0.42000 -0.04800
v -0.07704 0.42000 -0.04359
v -0.05757 0.42000 -0.03101
v -0.04457 0.42000 -0.01220
v -0.03800 0.26000 -0.01000
v -0.04272 0.26000 0.01220
v -0.05616 0.26000 0.03101
v -0.07627 0.26000 0.04359
v -0.10000 0.26000 0.04800
v -0.12373 0.26000 0.04359
v -0.14384 0.26000 0.03101
v -0.15728 0.26000 0.01220
v -0.16200 0.26000 -0.01000
v -0.15728 0.26000 -0.03220
v -0.14384 0.26000 -0.05101
v -0.12373 0.26000 -0.06359
v -0.10000 0.26000 -0.06800
v -0.07627 0.26000 -0.06359
v -0.05616 0.26000 -0.05101
v -0.04272 0.26000 -0.03220
v -0.06000 0.08000 0.00000
v -0.06304 0.08000 0.01454
v -0.07172 0.08000 0.02687
v -0.08469 0.08000 0.03511
v -0.10000 0.08000 0.03800
v -0.11531 0.08000 0.03511
v -0.12828 0.08000 0.02687
v -0.13696 0.08000 0.01454
v -0.14000 0.08000 0.00000
v -0.13696 0.08000 -0.01454
v -0.12828 0.08000 -0.02687
v -0.11531 0.08000 -0.03511
v -0.10000 0.08000 -0.03800
v -0.08469 0.08000 -0.03511
v -0.07172 0.08000 -0.02687
v -0.06304 0.08000 -0.01454
v -0.05500 -0.02000 0.05000
v -0.05843 -0.02000 0.09210
v -0.06818 -0.02000 0.12778
v -0.08278 -0.02000 0.15163
v -0.10000 -0.02000 0.16000
v -0.11722 -0.02000 0.15163
v -0.13182 -0.02000 0.12778
v -0.14157 -0.02000 0.09210
v -0.14500 -0.02000 0.05000
v -0.14157 -0.02000 0.00790
v -0.13182 -0.02000 -0.02778
v -0.11722 -0.02000 -0.05163
v -0.10000 -0.02000 -0.06000
v -0.08278 -0.02000 -0.05163
v -0.06818 -0.02000 -0.02778
v -0.05843 -0.02000 0.00790
v 0.19500 0.76000 0.00000
v 0.18777 0.76000 0.03635
v 0.16718 0.76000 0.06718
v 0.13635 0.76000 0.08777
v 0.10000 0.76000 0.09500
v 0.06365 0.76000 0.08777
v 0.03282 0.76000 0.06718
v 0.01223 0.76000 0.03635
v 0.00500 0.76000 0.00000
v 0.01223 0.76000 -0.03635
v 0.03282 0.76000 -0.06718
v 0.06365 0.76000 -0.08777
v 0.10000 0.76000 -0.09500
v 0.13635 0.76000 -0.08777
v 0.16718 0.76000 -0.06718
v 0.18777 0.76000 -0.03635
v 0.18000 0.60000 0.00000
v 0.17391 0.60000 0.03061
v 0.15657 0.60000 0.05657
v 0.13061 0.60000 0.07391
v 0.10000 0.60000 0.08000
v 0.06939 0.60000 0.07391
v 0.04343 0.60000 0.05657
v 0.02609 0.60000 0.03061
v 0.02000 0.60000 0.00000
v 0.02609 0.60000 -0.03061
v 0.04343 0.60000 -0.05657
v 0.06939 0.60000 -0.07391
v 0.10000 0.60000 -0.08000
v 0.13061 0.60000 -0.07391
v 0.15657 0.60000 -0.05657
v 0.17391 0.60000 -0.03061
v 0.16000 0.42000 0.01000
v 0.15543 0.42000 0.03220
v 0.14243 0.42000 0.05101
v 0.12296 0.42000 0.06359
v 0.10000 0.42000 0.06800
v 0.07704 0.42000 0.06359
v 0.05757 0.42000 0.05101
v 0.04457 0.42000 0.03220
v 0.04000 0.42000 0.01000
v 0.04457 0.42000 -0.01220
v 0.05757 0.42000 -0.03101
v 0.07704 0.42000 -0.04359
v 0.10000 0.42000 -0.04800
v 0.12296 0.42000 -0.04359
v 0.14243 0.42000 -0.03101
v 0.15543 0.42000 -0.01220
v 0.16200 0.26000 -0.01000
v 0.15728 0.26000 0.01220
v 0.14384 0.26000 0.03101
v 0.12373 0.26000 0.04359
v 0.10000 0.26000 0.04800
v 0.07627 0.26000 0.04359
v 0.05616 0.26000 0.03101
v 0.04272 0.26000 0.01220
v 0.03800 0.26000 -0.01000
v 0.04272 0.26000 -0.03220
v 0.05616 0.26000 -0.05101
v 0.07627 0.26000 -0.06359
v 0.10000 0.26000 -0.06800
v 0.12373 0.26000 -0.06359
v 0.14384 0.26000 -0.05101
v 0.15728 0.26000 -0.03220
v 0.14000 0.08000 0.00000
v 0.13696 0.08000 0.01454
v 0.12828 0.08000 0.02687
v 0.11531 0.08000 0.03511
v 0.10000 0.08000 0.03800
v 0.08469 0.08000 0.03511
v 0.07172 0.08000 0.02687
v 0.06304 0.08000 0.01454
v 0.06000 0.08000 0.00000
v 0.06304 0.08000 -0.01454
v 0.07172 0.08000 -0.02687
v 0.08469 0.08000 -0.03511
v 0.10000 0.08000 -0.03800
v 0.11531 0.08000 -0.03511
v 0.12828 0.08000 -0.02687
v 0.13696 0.08000 -0.01454
v 0.14500 -0.02000 0.05000
v 0.14157 -0.02000 0.09210
v 0.13182 -0.02000 0.12778
v 0.11722 -0.02000 0.15163
v 0.10000 -0.02000 0.16000
v 0.08278 -0.02000 0.15163
v 0.06818 -0.02000 0.12778
v 0.05843 -0.02000 0.09210
v 0.05500 -0.02000 0.05000
v 0.05843 -0.02000 0.00790
v 0.06818 -0.02000 -0.02778
v 0.08278 -0.02000 -0.05163
v 0.10000 -0.02000 -0.06000
v 0.11722 -0.02000 -0.05163
v 0.13182 -0.02000 -0.02778
v 0.14157 -0.02000 0.00790
vt 0.00000 0.00000
vt 0.04167 0.00000
vt 0.08333 0.00000
vt 0.12500 0.00000
vt 0.16667 0.00000
vt 0.20833 0.00000
vt 0.25000 0.00000
vt 0.29167 0.00000
vt 0.33333 0.00000
vt 0.37500 0.00000
vt 0.41667 0.00000
vt 0.45833 0.00000
vt 0.50000 0.00000
vt 0.54167 0.00000
vt 0.58333 0.00000
vt 0.62500 0.00000
vt 0.66667 0.00000
vt 0.70833 0.00000
vt 0.75000 0.00000
vt 0.79167 0.00000
vt 0.83333 0.00000
vt 0.87500 0.00000
vt 0.91667 0.00000
vt 0.95833 0.00000
vt 0.00000 0.16667
vt 0.04167 0.16667
vt 0.08333 0.16667
vt 0.12500 0.16667
vt 0.16667 0.16667
vt 0.20833 0.16667
vt 0.25000 0.16667
vt 0.29167 0.16667
vt 0.33333 0.16667
vt 0.37500 0.16667
vt 0.41667 0.16667
vt 0.45833 0.16667
vt 0.50000 0.16667
vt 0.54167 0.16667
vt 0.58333 0.16667
vt 0.62500 0.16667
vt 0.66667 0.16667
vt 0.70833 0.16667
vt 0.75000 0.16667
vt 0.79167 0.16667
vt 0.83333 0.16667
vt 0.87500 0.16667
vt 0.91667 0.16667
vt 0.95833 0.16667
vt 0.00000 0.33333
vt 0.04167 0.33333
vt 0.08333 0.33333
vt 0.12500 0.33333
vt 0.16667 0.33333
vt 0.20833 0.33333
vt 0.25000 0.33333
vt 0.29167 0.33333
vt 0.33333 0.33333
vt 0.37500 0.33333
vt 0.41667 0.33333
vt 0.45833 0.33333
vt 0.50000 0.33333
vt 0.54167 0.33333
vt 0.58333 0.33333
vt 0.62500 0.33333
vt 0.66667 0.33333
vt 0.70833 0.33333
vt 0.75000 0.33333
vt 0.79167 0.33333
vt 0.83333 0.33333
vt 0.87500 0.33333
vt 0.91667 0.33333
vt 0.95833 0.33333
vt 0.00000 0.50000
vt 0.04167 0.50000
vt 0.08333 0.50000
vt 0.12500 0.50000
vt 0.16667 0.50000
vt 0.20833 0.50000
vt 0.25000 0.50000
vt 0.29167 0.50000
vt 0.33333 0.50000
vt 0.37500 0.50000
vt 0.41667 0.50000
vt 0.45833 0.50000
vt 0.50000 0.50000
vt 0.54167 0.50000
vt 0.58333 0.50000
vt 0.62500 0.50000
vt 0.66667 0.50000
vt 0.70833 0.50000
vt 0.75000 0.50000
vt 0.79167 0.50000
vt 0.83333 0.50000
vt 0.87500 0.50000
vt 0.91667 0.50000
vt 0.95833 0.50000
vt 0.00000 0.66667
vt 0.04167 0.66667
vt 0.08333 0.66667
vt 0.12500 0.66667
vt 0.16667 0.66667
vt 0.20833 0.66667
vt 0.25000 0.66667
vt 0.29167 0.66667
vt 0.33333 0.66667
vt 0.37500 0.66667
vt 0.41667 0.66667
vt 0.45833 0.66667
vt 0.50000 0.66667
vt 0.54167 0.66667
vt 0.58333 0.66667
vt 0.62500 0.66667
vt 0.66667 0.66667
vt 0.70833 0.66667
vt 0.75000 0.66667
vt 0.79167 0.66667
vt 0.83333 0.66667
vt 0.87500 0.66667
vt 0.91667 0.66667
vt 0.95833 0.66667
vt 0.00000 0.83333
vt 0.04167 0.83333
vt 0.08333 0.83333
vt 0.12500 0.83333
vt 0.16667 0.83333
vt 0.20833 0.83333
vt 0.25000 0.83333
vt 0.29167 0.83333
vt 0.33333 0.83333
vt 0.37500 0.83333
vt 0.41667 0.83333
vt 0.45833 0.83333
vt 0.50000 0.83333
vt 0.54167 0.83333
vt 0.58333 0.83333
vt 0.62500 0.83333
vt 0.66667 0.83333
vt 0.70833 0.83333
vt 0.75000 0.83333
vt 0.79167 0.83333
vt 0.83333 0.83333
vt 0.87500 0.83333
vt 0.91667 0.83333
vt 0.95833 0.83333
vt 0.00000 1.00000
vt 0.04167 1.00000
vt 0.08333 1.00000
vt 0.12500 1.00000
vt 0.16667 1.00000
vt 0.20833 1.00000
vt 0.25000 1.00000
vt 0.29167 1.00000
vt 0.33333 1.00000
vt 0.37500 1.00000
vt 0.41667 1.00000
vt 0.45833 1.00000
vt 0.50000 1.00000
vt 0.54167 1.00000
vt 0.58333 1.00000
vt 0.62500 1.00000
vt 0.66667 1.00000
vt 0.70833 1.00000
vt 0.75000 1.00000
vt 0.79167 1.00000
vt 0.83333 1.00000
vt 0.87500 1.00000
vt 0.91667 1.00000
vt 0.95833 1.00000
vt 0.00000 0.00000
vt 0.06250 0.00000
vt 0.12500 0.00000
vt 0.18750 0.00000
vt 0.25000 0.00000
vt 0.31250 0.00000
vt 0.37500 0.00000
vt 0.43750 0.00000
vt 0.50000 0.00000
vt 0.56250 0.00000
vt 0.62500 0.00000
vt 0.68750 0.00000
vt 0.75000 0.00000
vt 0.81250 0.00000
vt 0.87500 0.00000
vt 0.93750 0.00000
vt 0.00000 0.20000
vt 0.06250 0.20000
vt 0.12500 0.20000
vt 0.18750 0.20000
vt 0.25000 0.20000
vt 0.31250 0.20000
vt 0.37500 0.20000
vt 0.43750 0.20000
vt 0.50000 0.20000
vt 0.56250 0.20000
vt 0.62500 0.20000
vt 0.68750 0.20000
vt 0.75000 0.20000
vt 0.81250 0.20000
vt 0.87500 0.20000
vt 0.93750 0.20000
vt 0.00000 0.40000
vt 0.06250 0.40000
vt 0.12500 0.40000
vt 0.18750 0.40000
vt 0.25000 0.40000
vt 0.31250 0.40000
vt 0.37500 0.40000
vt 0.43750 0.40000
vt 0.50000 0.40000
vt 0.56250 0.40000
vt 0.62500 0.40000
vt 0.68750 0.40000
vt 0.75000 0.40000
vt 0.81250 0.40000
vt 0.87500 0.40000
vt 0.93750 0.40000
vt 0.00000 0.60000
vt 0.06250 0.60000
vt 0.12500 0.60000
vt 0.18750 0.60000
vt 0.25000 0.60000
vt 0.31250 0.60000
vt 0.37500 0.60000
vt 0.43750 0.60000
vt 0.50000 0.60000
vt 0.56250 0.60000
vt 0.62500 0.60000
vt 0.68750 0.60000
vt 0.75000 0.60000
vt 0.81250 0.60000
vt 0.87500 0.60000
vt 0.93750 0.60000
vt 0.00000 0.80000
vt 0.06250 0.80000
vt 0.12500 0.80000
vt 0.18750 0.80000
vt 0.25000 0.80000
vt 0.31250 0.80000
vt 0.37500 0.80000
vt 0.43750 0.80000
vt 0.50000 0.80000
vt 0.56250 0.80000
vt 0.62500 0.80000
vt 0.68750 0.80000
vt 0.75000 0.80000
vt 0.81250 0.80000
vt 0.87500 0.80000
vt 0.93750 0.80000
vt 0.00000 1.00000
vt 0.06250 1.00000
vt 0.12500 1.00000
vt 0.18750 1.00000
vt 0.25000 1.00000
vt 0.31250 1.00000
vt 0.37500 1.00000
vt 0.43750 1.00000
vt 0.50000 1.00000
vt 0.56250 1.00000
vt 0.62500 1.00000
vt 0.68750 1.00000
vt 0.75000 1.00000
vt 0.81250 1.00000
vt 0.87500 1.00000
vt 0.93750 1.00000
vt 0.00000 0.00000
vt 0.06250 0.00000
vt 0.12500 0.00000
vt 0.18750 0.00000
vt 0.25000 0.00000
vt 0.31250 0.00000
vt 0.37500 0.00000
vt 0.43750 0.00000
vt 0.50000 0.00000
vt 0.56250 0.00000
vt 0.62500 0.00000
vt 0.68750 0.00000
vt 0.75000 0.00000
vt 0.81250 0.00000
vt 0.87500 0.00000
vt 0.93750 0.00000
vt 0.00000 0.20000
vt 0.06250 0.20000
vt 0.12500 0.20000
vt 0.18750 0.20000
vt 0.25000 0.20000
vt 0.31250 0.20000
vt 0.37500 0.20000
vt 0.43750 0.20000
vt 0.50000 0.20000
vt 0.56250 0.20000
vt 0.62500 0.20000
vt 0.68750 0.20000
vt 0.75000 0.20000
vt 0.81250 0.20000
vt 0.87500 0.20000
vt 0.93750 0.20000
vt 0.00000 0.40000
vt 0.06250 0.40000
vt 0.12500 0.40000
vt 0.18750 0.40000
vt 0.25000 0.40000
vt 0.31250 0.40000
vt 0.37500 0.40000
vt 0.43750 0.40000
vt 0.50000 0.40000
vt 0.56250 0.40000
vt 0.62500 0.40000
vt 0.68750 0.40000
vt 0.75000 0.40000
vt 0.81250 0.40000
vt 0.87500 0.40000
vt 0.93750 0.40000
vt 0.00000 0.60000
vt 0.06250 0.60000
vt 0.12500 0.60000
vt 0.18750 0.60000
vt 0.25000 0.60000
vt 0.31250 0.60000
vt 0.37500 0.60000
vt 0.43750 0.60000
vt 0.50000 0.60000
vt 0.56250 0.60000
vt 0.62500 0.60000
vt 0.68750 0.60000
vt 0.75000 0.60000
vt 0.81250 0.60000
vt 0.87500 0.60000
vt 0.93750 0.60000
vt 0.00000 0.80000
vt 0.06250 0.80000
vt 0.12500 0.80000
vt 0.18750 0.80000
vt 0.25000 0.80000
vt 0.31250 0.80000
vt 0.37500 0.80000
vt 0.43750 0.80000
vt 0.50000 0.80000
vt 0.56250 0.80000
vt 0.62500 0.80000
vt 0.68750 0.80000
vt 0.75000 0.80000
vt 0.81250 0.80000
vt 0.87500 0.80000
vt 0.93750 0.80000
vt 0.00000 1.00000
vt 0.06250 1.00000
vt 0.12500 1.00000
vt 0.18750 1.00000
vt 0.25000 1.00000
vt 0.31250 1.00000
vt 0.37500 1.00000
vt 0.43750 1.00000
vt 0.50000 1.00000
vt 0.56250 1.00000
vt 0.62500 1.00000
vt 0.68750 1.00000
vt 0.75000 1.00000
vt 0.81250 1.00000
vt 0.87500 1.00000
vt 0.93750 1.00000
vt 0.00000 0.00000
vt 0.06250 0.00000
vt 0.12500 0.00000
vt 0.18750 0.00000
vt 0.25000 0.00000
vt 0.31250 0.00000
vt 0.37500 0.00000
vt 0.43750 0.00000
vt 0.50000 0.00000
vt 0.56250 0.00000
vt 0.62500 0.00000
vt 0.68750 0.00000
vt 0.75000 0.00000
vt 0.81250 0.00000
vt 0.87500 0.00000
vt 0.93750 0.00000
vt 0.00000 0.20000
vt 0.06250 0.20000
vt 0.12500 0.20000
vt 0.18750 0.20000
vt 0.25000 0.20000
vt 0.31250 0.20000
vt 0.37500 0.20000
vt 0.43750 0.20000
vt 0.50000 0.20000
vt 0.56250 0.20000
vt 0.62500 0.20000
vt 0.68750 0.20000
vt 0.75000 0.20000
vt 0.81250 0.20000
vt 0.87500 0.20000
vt 0.93750 0.20000
vt 0.00000 0.40000
vt 0.06250 0.40000
vt 0.12500 0.40000
vt 0.18750 0.40000
vt 0.25000 0.40000
vt 0.31250 0.40000
vt 0.37500 0.40000
vt 0.43750 0.40000
vt 0.50000 0.40000
vt 0.56250 0.40000
vt 0.62500 0.40000
vt 0.68750 0.40000
vt 0.75000 0.40000
vt 0.81250 0.40000
vt 0.87500 0.40000
vt 0.93750 0.40000
vt 0.00000 0.60000
vt 0.06250 0.60000
vt 0.12500 0.60000
vt 0.18750 0.60000
vt 0.25000 0.60000
vt 0.31250 0.60000
vt 0.37500 0.60000
vt 0.43750 0.60000
vt 0.50000 0.60000
vt 0.56250 0.60000
vt 0.62500 0.60000
vt 0.68750 0.60000
vt 0.75000 0.60000
vt 0.81250 0.60000
vt 0.87500 0.60000
vt 0.93750 0.60000
vt 0.00000 0.80000
vt 0.06250 0.80000
vt 0.12500 0.80000
vt 0.18750 0.80000
vt 0.25000 0.80000
vt 0.31250 0.80000
vt 0.37500 0.80000
vt 0.43750 0.80000
vt 0.50000 0.80000
vt 0.56250 0.80000
vt 0.62500 0.80000
vt 0.68750 0.80000
vt 0.75000 0.80000
vt 0.81250 0.80000
vt 0.87500 0.80000
vt 0.93750 0.80000
vt 0.00000 1.00000
vt 0.06250 1.00000
vt 0.12500 1.00000
vt 0.18750 1.00000
vt 0.25000 1.00000
vt 0.31250 1.00000
vt 0.37500 1.00000
vt 0.43750 1.00000
vt 0.50000 1.00000
vt 0.56250 1.00000
vt 0.62500 1.00000
vt 0.68750 1.00000
vt 0.75000 1.00000
vt 0.81250 1.00000
vt 0.87500 1.00000
vt 0.93750 1.00000
vt 0.00000 0.00000
vt 0.06250 0.00000
vt 0.12500 0.00000
vt 0.18750 0.00000
vt 0.25000 0.00000
vt 0.31250 0.00000
vt 0.37500 0.00000
vt 0.43750 0.00000
vt 0.50000 0.00000
vt 0.56250 0.00000
vt 0.62500 0.00000
vt 0.68750 0.00000
vt 0.75000 0.00000
vt 0.81250 0.00000
vt 0.87500 0.00000
vt 0.93750 0.00000
vt 0.00000 0.20000
vt 0.06250 0.20000
vt 0.12500 0.20000
vt 0.18750 0.20000
vt 0.25000 0.20000
vt 0.31250 0.20000
vt 0.37500 0.20000
vt 0.43750 0.20000
vt 0.50000 0.20000
vt 0.56250 0.20000
vt 0.62500 0.20000
vt 0.68750 0.20000
vt 0.75000 0.20000
vt 0.81250 0.20000
vt 0.87500 0.20000
vt 0.93750 0.20000
vt 0.00000 0.40000
vt 0.06250 0.40000
vt 0.12500 0.40000
vt 0.18750 0.40000
vt 0.25000 0.40000
vt 0.31250 0.40000
vt 0.37500 0.40000
vt 0.43750 0.40000
vt 0.50000 0.40000
vt 0.56250 0.40000
vt 0.62500 0.40000
vt 0.68750 0.40000
vt 0.75000 0.40000
vt 0.81250 0.40000
vt 0.87500 0.40000
vt 0.93750 0.40000
vt 0.00000 0.60000
vt 0.06250 0.60000
vt 0.12500 0.60000
vt 0.18750 0.60000
vt 0.25000 0.60000
vt 0.31250 0.60000
vt 0.37500 0.60000
vt 0.43750 0.60000
vt 0.50000 0.60000
vt 0.56250 0.60000
vt 0.62500 0.60000
vt 0.68750 0.60000
vt 0.75000 0.60000
vt 0.81250 0.60000
vt 0.87500 0.60000
vt 0.93750 0.60000
vt 0.00000 0.80000
vt 0.06250 0.80000
vt 0.12500 0.80000
vt 0.18750 0.80000
vt 0.25000 0.80000
vt 0.31250 0.80000
vt 0.37500 0.80000
vt 0.43750 0.80000
vt 0.50000 0.80000
vt 0.56250 0.80000
vt 0.62500 0.80000
vt 0.68750 0.80000
vt 0.75000 0.80000
vt 0.81250 0.80000
vt 0.87500 0.80000
vt 0.93750 0.80000
vt 0.00000 1.00000
vt 0.06250 1.00000
vt 0.12500 1.00000
vt 0.18750 1.00000
vt 0.25000 1.00000
vt 0.31250 1.00000
vt 0.37500 1.00000
vt 0.43750 1.00000
vt 0.50000 1.00000
vt 0.56250 1.00000
vt 0.62500 1.00000
vt 0.68750 1.00000
vt 0.75000 1.00000
vt 0.81250 1.00000
vt 0.87500 1.00000
vt 0.93750 1.00000
vn 1.00000 0.00000 0.00000
vn 0.96593 0.00000 0.25882
vn 0.86603 0.00000 0.50000
vn 0.70711 0.00000 0.70711
vn 0.50000 0.00000 0.86603
vn 0.25882 0.00000 0.96593
vn 0.00000 0.00000 1.00000
vn -0.25882 0.00000 0.96593
vn -0.50000 0.00000 0.86603
vn -0.70711 0.00000 0.70711
vn -0.86603 0.00000 0.50000
vn -0.96593 0.00000 0.25882
vn -1.00000 0.00000 0.00000
vn -0.96593 0.00000 -0.25882
vn -0.86603 0.00000 -0.50000
vn -0.70711 0.00000 -0.70711
vn -0.50000 0.00000 -0.86603
vn -0.25882 0.00000 -0.96593
vn -0.00000 0.00000 -1.00000
vn 0.25882 0.00000 -0.96593
vn 0.50000 0.00000 -0.86603
vn 0.70711 0.00000 -0.70711
vn 0.86603 0.00000 -0.50000
vn 0.96593 0.00000 -0.25882
vn 1.00000 0.00000 0.00000
vn 0.96593 0.00000 0.25882
vn 0.86603 0.00000 0.50000
vn 0.70711 0.00000 0.70711
vn 0.50000 0.00000 0.86603
vn 0.25882 0.00000 0.96593
vn 0.00000 0.00000 1.00000
vn -0.25882 0.00000 0.96593
vn -0.50000 0.00000 0.86603
vn -0.70711 0.00000 0.70711
vn -0.86603 0.00000 0.50000
vn -0.96593 0.00000 0.25882
vn -1.00000 0.00000 0.00000
vn -0.96593 0.00000 -0.25882
vn -0.86603 0.00000 -0.50000
vn -0.70711 0.00000 -0.70711
vn -0.50000 0.00000 -0.86603
vn -0.25882 0.00000 -0.96593
vn -0.00000 0.00000 -1.00000
vn 0.25882 0.00000 -0.96593
vn 0.50000 0.00000 -0.86603
vn 0.70711 0.00000 -0.70711
vn 0.86603 0.00000 -0.50000
vn 0.96593 0.00000 -0.25882
vn 1.00000 0.00000 0.00000
vn 0.96593 0.00000 0.25882
vn 0.86603 0.00000 0.50000
vn 0.70711 0.00000 0.70711
vn 0.50000 0.00000 0.86603
vn 0.25882 0.00000 0.96593
vn 0.00000 0.00000 1.00000
vn -0.25882 0.00000 0.96593
vn -0.50000 0.00000 0.86603
vn -0.70711 0.00000 0.70711
vn -0.86603 0.00000 0.50000
vn -0.96593 0.00000 0.25882
vn -1.00000 0.00000 0.00000
vn -0.96593 0.00000 -0.25882
vn -0.86603 0.00000 -0.50000
vn -0.70711 0.00000 -0.70711
vn -0.50000 0.00000 -0.86603
vn -0.25882 0.00000 -0.96593
vn -0.00000 0.00000 -1.00000
vn 0.25882 0.00000 -0.96593
vn 0.50000 0.00000 -0.86603
vn 0.70711 0.00000 -0.70711
vn 0.86603 0.00000 -0.50000
vn 0.96593 0.00000 -0.25882
vn 1.00000 0.00000 0.00000
vn 0.96593 0.00000 0.25882
vn 0.86603 0.00000 0.50000
vn 0.70711 0.00000 0.70711
vn 0.50000 0.00000 0.86603
vn 0.25882 0.00000 0.96593
vn 0.00000 0.00000 1.00000
vn -0.25882 0.00000 0.96593
vn -0.50000 0.00000 0.86603
vn -0.70711 0.00000 0.70711
vn -0.86603 0.00000 0.50000
vn -0.96593 0.00000 0.25882
vn -1.00000 0.00000 0.00000
vn -0.96593 0.00000 -0.25882
vn -0.86603 0.00000 -0.50000
vn -0.70711 0.00000 -0.70711
vn -0.50000 0.00000 -0.86603
vn -0.25882 0.00000 -0.96593
vn -0.00000 0.00000 -1.00000
vn 0.25882 0.00000 -0.96593
vn 0.50000 0.00000 -0.86603
vn 0.70711 0.00000 -0.70711
vn 0.86603 0.00000 -0.50000
vn 0.96593 0.00000 -0.25882
vn 1.00000 0.00000 0.00000
vn 0.96593 0.00000 0.25882
vn 0.86603 0.00000 0.50000
vn 0.70711 0.00000 0.70711
vn 0.50000 0.00000 0.86603
vn 0.25882 0.00000 0.96593
vn 0.00000 0.00000 1.00000
vn -0.25882 0.00000 0.96593
vn -0.50000 0.00000 0.86603
vn -0.70711 0.00000 0.70711
vn -0.86603 0.00000 0.50000
vn -0.96593 0.00000 0.25882
vn -1.00000 0.00000 0.00000
vn -0.96593 0.00000 -0.25882
vn -0.86603 0.00000 -0.50000
vn -0.70711 0.00000 -0.70711
vn -0.50000 0.00000 -0.86603
vn -0.25882 0.00000 -0.96593
vn -0.00000 0.00000 -1.00000
vn 0.25882 0.00000 -0.96593
vn 0.50000 0.00000 -0.86603
vn 0.70711 0.00000 -0.70711
vn 0.86603 0.00000 -0.50000
vn 0.96593 0.00000 -0.25882
vn 1.00000 0.00000 0.00000
vn 0.96593 0.00000 0.25882
vn 0.86603 0.00000 0.50000
vn 0.70711 0.00000 0.70711
vn 0.50000 0.00000 0.86603
vn 0.25882 0.00000 0.96593
vn 0.00000 0.00000 1.00000
vn -0.25882 0.00000 0.96593
vn -0.50000 0.00000 0.86603
vn -0.70711 0.00000 0.70711
vn -0.86603 0.00000 0.50000
vn -0.96593 0.00000 0.25882
vn -1.00000 0.00000 0.00000
vn -0.96593 0.00000 -0.25882
vn -0.86603 0.00000 -0.50000
vn -0.70711 0.00000 -0.70711
vn -0.50000 0.00000 -0.86603
vn -0.25882 0.00000 -0.96593
vn -0.00000 0.00000 -1.00000
vn 0.25882 0.00000 -0.96593
vn 0.50000 0.00000 -0.86603
vn 0.70711 0.00000 -0.70711
vn 0.86603 0.00000 -0.50000
vn 0.96593 0.00000 -0.25882
vn 1.00000 0.00000 0.00000
vn 0.96593 0.00000 0.25882
vn 0.86603 0.00000 0.50000
vn 0.70711 0.00000 0.70711
vn 0.50000 0.00000 0.86603
vn 0.25882 0.00000 0.96593
vn 0.00000 0.00000 1.00000
vn -0.25882 0.00000 0.96593
vn -0.50000 0.00000 0.86603
vn -0.70711 0.00000 0.70711
vn -0.86603 0.00000 0.50000
vn -0.96593 0.00000 0.25882
vn -1.00000 0.00000 0.00000
vn -0.96593 0.00000 -0.25882
vn -0.86603 0.00000 -0.50000
vn -0.70711 0.00000 -0.70711
vn -0.50000 0.00000 -0.86603
vn -0.25882 0.00000 -0.96593
vn -0.00000 0.00000 -1.00000
vn 0.25882 0.00000 -0.96593
vn 0.50000 0.00000 -0.86603
vn 0.70711 0.00000 -0.70711
vn 0.86603 0.00000 -0.50000
vn 0.96593 0.00000 -0.25882
vn 1.00000 0.00000 0.00000
vn 0.92388 0.00000 0.38268
vn 0.70711 0.00000 0.70711
vn 0.38268 0.00000 0.92388
vn 0.00000 0.00000 1.00000
vn -0.38268 0.00000 0.92388
vn -0.70711 0.00000 0.70711
vn -0.92388 0.00000 0.38268
vn -1.00000 0.00000 0.00000
vn -0.92388 0.00000 -0.38268
vn -0.70711 0.00000 -0.70711
vn -0.38268 0.00000 -0.92388
vn -0.00000 0.00000 -1.00000
vn 0.38268 0.00000 -0.92388
vn 0.70711 0.00000 -0.70711
vn 0.92388 0.00000 -0.38268
vn 1.00000 0.00000 0.00000
vn 0.92388 0.00000 0.38268
vn 0.70711 0.00000 0.70711
vn 0.38268 0.00000 0.92388
vn 0.00000 0.00000 1.00000
vn -0.38268 0.00000 0.92388
vn -0.70711 0.00000 0.70711
vn -0.92388 0.00000 0.38268
vn -1.00000 0.00000 0.00000
vn -0.92388 0.00000 -0.38268
vn -0.70711 0.00000 -0.70711
vn -0.38268 0.00000 -0.92388
vn -0.00000 0.00000 -1.00000
vn 0.38268 0.00000 -0.92388
vn 0.70711 0.00000 -0.70711
vn 0.92388 0.00000 -0.38268
vn 1.00000 0.00000 0.00000
vn 0.92388 0.00000 0.38268
vn 0.70711 0.00000 0.70711
vn 0.38268 0.00000 0.92388
vn 0.00000 0.00000 1.00000
vn -0.38268 0.00000 0.92388
vn -0.70711 0.00000 0.70711
vn -0.92388 0.00000 0.38268
vn -1.00000 0.00000 0.00000
vn -0.92388 0.00000 -0.38268
vn -0.70711 0.00000 -0.70711
vn -0.38268 0.00000 -0.92388
vn -0.00000 0.00000 -1.00000
vn 0.38268 0.00000 -0.92388
vn 0.70711 0.00000 -0.70711
vn 0.92388 0.00000 -0.38268
vn 1.00000 0.00000 0.00000
vn 0.92388 0.00000 0.38268
vn 0.70711 0.00000 0.70711
vn 0.38268 0.00000 0.92388
vn 0.00000 0.00000 1.00000
vn -0.38268 0.00000 0.92388
vn -0.70711 0.00000 0.70711
vn -0.92388 0.00000 0.38268
vn -1.00000 0.00000 0.00000
vn -0.92388 0.00000 -0.38268
vn -0.70711 0.00000 -0.70711
vn -0.38268 0.00000 -0.92388
vn -0.00000 0.00000 -1.00000
vn 0.38268 0.00000 -0.92388
vn 0.70711 0.00000 -0.70711
vn 0.92388 0.00000 -0.38268
vn 1.00000 0.00000 0.00000
vn 0.92388 0.00000 0.38268
vn 0.70711 0.00000 0.70711
vn 0.38268 0.00000 0.92388
vn 0.00000 0.00000 1.00000
vn -0.38268 0.00000 0.92388
vn -0.70711 0.00000 0.70711
vn -0.92388 0.00000 0.38268
vn -1.00000 0.00000 0.00000
vn -0.92388 0.00000 -0.38268
vn -0.70711 0.00000 -0.70711
vn -0.38268 0.00000 -0.92388
vn -0.00000 0.00000 -1.00000
vn 0.38268 0.00000 -0.92388
vn 0.70711 0.00000 -0.70711
vn 0.92388 0.00000 -0.38268
vn 1.00000 0.00000 0.00000
vn 0.92388 0.00000 0.38268
vn 0.70711 0.00000 0.70711
vn 0.38268 0.00000 0.92388
vn 0.00000 0.00000 1.00000
vn -0.38268 0.00000 0.92388
vn -0.70711 0.00000 0.70711
vn -0.92388 0.00000 0.38268
vn -1.00000 0.00000 0.00000
vn -0.92388 0.00000 -0.38268
vn -0.70711 0.00000 -0.70711
vn -0.38268 0.00000 -0.92388
vn -0.00000 0.00000 -1.00000
vn 0.38268 0.00000 -0.92388
vn 0.70711 0.00000 -0.70711
vn 0.92388 0.00000 -0.38268
vn 1.00000 0.00000 0.00000
vn 0.92388 0.00000 0.38268
vn 0.70711 0.00000 0.70711
vn 0.38268 0.00000 0.92388
vn 0.00000 0.00000 1.00000
vn -0.38268 0.00000 0.92388
vn -0.70711 0.00000 0.70711
vn -0.92388 0.00000 0.38268
vn -1.00000 0.00000 0.00000
vn -0.92388 0.00000 -0.38268
vn -0.70711 0.00000 -0.70711
vn -0.38268 0.00000 -0.92388
vn -0.00000 0.00000 -1.00000
vn 0.38268 0.00000 -0.92388
vn 0.70711 0.00000 -0.70711
vn 0.92388 0.00000 -0.38268
vn 1.00000 0.00000 0.00000
vn 0.92388 0.00000 0.38268
vn 0.70711 0.00000 0.70711
vn 0.38268 0.00000 0.92388
vn 0.00000 0.00000 1.00000
vn -0.38268 0.00000 0.92388
vn -0.70711 0.00000 0.70711
vn -0.92388 0.00000 0.38268
vn -1.00000 0.00000 0.00000
vn -0.92388 0.00000 -0.38268
vn -0.70711 0.00000 -0.70711
vn -0.38268 0.00000 -0.92388
vn -0.00000 0.00000 -1.00000
vn 0.38268 0.00000 -0.92388
vn 0.70711 0.00000 -0.70711
vn 0.92388 0.00000 -0.38268
vn 1.00000 0.00000 0.00000
vn 0.92388 0.00000 0.38268
vn 0.70711 0.00000 0.70711
vn 0.38268 0.00000 0.92388
vn 0.00000 0.00000 1.00000
vn -0.38268 0.00000 0.92388
vn -0.70711 0.00000 0.70711
vn -0.92388 0.00000 0.38268
vn -1.00000 0.00000 0.00000
vn -0.92388 0.00000 -0.38268
vn -0.70711 0.00000 -0.70711
vn -0.38268 0.00000 -0.92388
vn -0.00000 0.00000 -1.00000
vn 0.38268 0.00000 -0.92388
vn 0.70711 0.00000 -0.70711
vn 0.92388 0.00000 -0.38268
vn 1.00000 0.00000 0.00000
vn 0.92388 0.00000 0.38268
vn 0.70711 0.00000 0.70711
vn 0.38268 0.00000 0.92388
vn 0.00000 0.00000 1.00000
vn -0.38268 0.00000 0.92388
vn -0.70711 0.00000 0.70711
vn -0.92388 0.00000 0.38268
vn -1.00000 0.00000 0.00000
vn -0.92388 0.00000 -0.38268
vn -0.70711 0.00000 -0.70711
vn -0.38268 0.00000 -0.92388
vn -0.00000 0.00000 -1.00000
vn 0.38268 0.00000 -0.92388
vn 0.70711 0.00000 -0.70711
vn 0.92388 0.00000 -0.38268
vn 1.00000 0.00000 0.00000
vn 0.92388 0.00000 0.38268
vn 0.70711 0.00000 0.70711
vn 0.38268 0.00000 0.92388
vn 0.00000 0.00000 1.00000
vn -0.38268 0.00000 0.92388
vn -0.70711 0.00000 0.70711
vn -0.92388 0.00000 0.38268
vn -1.00000 0.00000 0.00000
vn -0.92388 0.00000 -0.38268
vn -0.70711 0.00000 -0.70711
vn -0.38268 0.00000 -0.92388
vn -0.00000 0.00000 -1.00000
vn 0.38268 0.00000 -0.92388
vn 0.70711 0.00000 -0.70711
vn 0.92388 0.00000 -0.38268
vn 1.00000 0.00000 0.00000
vn 0.92388 0.00000 0.38268
vn 0.70711 0.00000 0.70711
vn 0.38268 0.00000 0.92388
vn 0.00000 0.00000 1.00000
vn -0.38268 0.00000 0.92388
vn -0.70711 0.00000 0.70711
vn -0.92388 0.00000 0.38268
vn -1.00000 0.00000 0.00000
vn -0.92388 0.00000 -0.38268
vn -0.70711 0.00000 -0.70711
vn -0.38268 0.00000 -0.92388
vn -0.00000 0.00000 -1.00000
vn 0.38268 0.00000 -0.92388
vn 0.70711 0.00000 -0.70711
vn 0.92388 0.00000 -0.38268
vn 1.00000 0.00000 0.00000
vn 0.92388 0.00000 0.38268
vn 0.70711 0.00000 0.70711
vn 0.38268 0.00000 0.92388
vn 0.00000 0.00000 1.00000
vn -0.38268 0.00000 0.92388
vn -0.70711 0.00000 0.70711
vn -0.92388 0.00000 0.38268
vn -1.00000 0.00000 0.00000
vn -0.92388 0.00000 -0.38268
vn -0.70711 0.00000 -0.70711
vn -0.38268 0.00000 -0.92388
vn -0.00000 0.00000 -1.00000
vn 0.38268 0.00000 -0.92388
vn 0.70711 0.00000 -0.70711
vn 0.92388 0.00000 -0.38268
vn 1.00000 0.00000 0.00000
vn 0.92388 0.00000 0.38268
vn 0.70711 0.00000 0.70711
vn 0.38268 0.00000 0.92388
vn 0.00000 0.00000 1.00000
vn -0.38268 0.00000 0.92388
vn -0.70711 0.00000 0.70711
vn -0.92388 0.00000 0.38268
vn -1.00000 0.00000 0.00000
vn -0.92388 0.00000 -0.38268
vn -0.70711 0.00000 -0.70711
vn -0.38268 0.00000 -0.92388
vn -0.00000 0.00000 -1.00000
vn 0.38268 0.00000 -0.92388
vn 0.70711 0.00000 -0.70711
vn 0.92388 0.00000 -0.38268
vn 1.00000 0.00000 0.00000
vn 0.92388 0.00000 0.38268
vn 0.70711 0.00000 0.70711
vn 0.38268 0.00000 0.92388
vn 0.00000 0.00000 1.00000
vn -0.38268 0.00000 0.92388
vn -0.70711 0.00000 0.70711
vn -0.92388 0.00000 0.38268
vn -1.00000 0.00000 0.00000
vn -0.92388 0.00000 -0.38268
vn -0.70711 0.00000 -0.70711
vn -0.38268 0.00000 -0.92388
vn -0.00000 0.00000 -1.00000
vn 0.38268 0.00000 -0.92388
vn 0.70711 0.00000 -0.70711
vn 0.92388 0.00000 -0.38268
vn 1.00000 0.00000 0.00000
vn 0.92388 0.00000 0.38268
vn 0.70711 0.00000 0.70711
vn 0.38268 0.00000 0.92388
vn 0.00000 0.00000 1.00000
vn -0.38268 0.00000 0.92388
vn -0.70711 0.00000 0.70711
vn -0.92388 0.00000 0.38268
vn -1.00000 0.00000 0.00000
vn -0.92388 0.00000 -0.38268
vn -0.70711 0.00000 -0.70711
vn -0.38268 0.00000 -0.92388
vn -0.00000 0.00000 -1.00000
vn 0.38268 0.00000 -0.92388
vn 0.70711 0.00000 -0.70711
vn 0.92388 0.00000 -0.38268
vn 1.00000 0.00000 0.00000
vn 0.92388 0.00000 0.38268
vn 0.70711 0.00000 0.70711
vn 0.38268 0.00000 0.92388
vn 0.00000 0.00000 1.00000
vn -0.38268 0.00000 0.92388
vn -0.70711 0.00000 0.70711
vn -0.92388 0.00000 0.38268
vn -1.00000 0.00000 0.00000
vn -0.92388 0.00000 -0.38268
vn -0.70711 0.00000 -0.70711
vn -0.38268 0.00000 -0.92388
vn -0.00000 0.00000 -1.00000
vn 0.38268 0.00000 -0.92388
vn 0.70711 0.00000 -0.70711
vn 0.92388 0.00000 -0.38268
vn 1.00000 0.00000 0.00000
vn 0.92388 0.00000 0.38268
vn 0.70711 0.00000 0.70711
vn 0.38268 0.00000 0.92388
vn 0.00000 0.00000 1.00000
vn -0.38268 0.00000 0.92388
vn -0.70711 0.00000 0.70711
vn -0.92388 0.00000 0.38268
vn -1.00000 0.00000 0.00000
vn -0.92388 0.00000 -0.38268
vn -0.70711 0.00000 -0.70711
vn -0.38268 0.00000 -0.92388
vn -0.00000 0.00000 -1.00000
vn 0.38268 0.00000 -0.92388
vn 0.70711 0.00000 -0.70711
vn 0.92388 0.00000 -0.38268
vn 1.00000 0.00000 0.00000
vn 0.92388 0.00000 0.38268
vn 0.70711 0.00000 0.70711
vn 0.38268 0.00000 0.92388
vn 0.00000 0.00000 1.00000
vn -0.38268 0.00000 0.92388
vn -0.70711 0.00000 0.70711
vn -0.92388 0.00000 0.38268
vn -1.00000 0.00000 0.00000
vn -0.92388 0.00000 -0.38268
vn -0.70711 0.00000 -0.70711
vn -0.38268 0.00000 -0.92388
vn -0.00000 0.00000 -1.00000
vn 0.38268 0.00000 -0.92388
vn 0.70711 0.00000 -0.70711
vn 0.92388 0.00000 -0.38268
vn 1.00000 0.00000 0.00000
vn 0.92388 0.00000 0.38268
vn 0.70711 0.00000 0.70711
vn 0.38268 0.00000 0.92388
vn 0.00000 0.00000 1.00000
vn -0.38268 0.00000 0.92388
vn -0.70711 0.00000 0.70711
vn -0.92388 0.00000 0.38268
vn -1.00000 0.00000 0.00000
vn -0.92388 0.00000 -0.38268
vn -0.70711 0.00000 -0.70711
vn -0.38268 0.00000 -0.92388
vn -0.00000 0.00000 -1.00000
vn 0.38268 0.00000 -0.92388
vn 0.70711 0.00000 -0.70711
vn 0.92388 0.00000 -0.38268
vn 1.00000 0.00000 0.00000
vn 0.92388 0.00000 0.38268
vn 0.70711 0.00000 0.70711
vn 0.38268 0.00000 0.92388
vn 0.00000 0.00000 1.00000
vn -0.38268 0.00000 0.92388
vn -0.70711 0.00000 0.70711
vn -0.92388 0.00000 0.38268
vn -1.00000 0.00000 0.00000
vn -0.92388 0.00000 -0.38268
vn -0.70711 0.00000 -0.70711
vn -0.38268 0.00000 -0.92388
vn -0.00000 0.00000 -1.00000
vn 0.38268 0.00000 -0.92388
vn 0.70711 0.00000 -0.70711
vn 0.92388 0.00000 -0.38268
vn 1.00000 0.00000 0.00000
vn 0.92388 0.00000 0.38268
vn 0.70711 0.00000 0.70711
vn 0.38268 0.00000 0.92388
vn 0.00000 0.00000 1.00000
vn -0.38268 0.00000 0.92388
vn -0.70711 0.00000 0.70711
vn -0.92388 0.00000 0.38268
vn -1.00000 0.00000 0.00000
vn -0.92388 0.00000 -0.38268
vn -0.70711 0.00000 -0.70711
vn -0.38268 0.00000 -0.92388
vn -0.00000 0.00000 -1.00000
vn 0.38268 0.00000 -0.92388
vn 0.70711 0.00000 -0.70711
vn 0.92388 0.00000 -0.38268
vn 1.00000 0.00000 0.00000
vn 0.92388 0.00000 0.38268
vn 0.70711 0.00000 0.70711
vn 0.38268 0.00000 0.92388
vn 0.00000 0.00000 1.00000
vn -0.38268 0.00000 0.92388
vn -0.70711 0.00000 0.70711
vn -0.92388 0.00000 0.38268
vn -1.00000 0.00000 0.00000
vn -0.92388 0.00000 -0.38268
vn -0.70711 0.00000 -0.70711
vn -0.38268 0.00000 -0.92388
vn -0.00000 0.00000 -1.00000
vn 0.38268 0.00000 -0.92388
vn 0.70711 0.00000 -0.70711
vn 0.92388 0.00000 -0.38268
vn 1.00000 0.00000 0.00000
vn 0.92388 0.00000 0.38268
vn 0.70711 0.00000 0.70711
vn 0.38268 0.00000 0.92388
vn 0.00000 0.00000 1.00000
vn -0.38268 0.00000 0.92388
vn -0.70711 0.00000 0.70711
vn -0.92388 0.00000 0.38268
vn -1.00000 0.00000 0.00000
vn -0.92388 0.00000 -0.38268
vn -0.70711 0.00000 -0.70711
vn -0.38268 0.00000 -0.92388
vn -0.00000 0.00000 -1.00000
vn 0.38268 0.00000 -0.92388
vn 0.70711 0.00000 -0.70711
vn 0.92388 0.00000 -0.38268
usemtl BodySkin
f 1/1/1 25/25/25 26/26/26
f 1/1/1 26/26/26 2/2/2
f 2/2/2 26/26/26 27/27/27
f 2/2/2 27/27/27 3/3/3
f 3/3/3 27/27/27 28/28/28
f 3/3/3 28/28/28 4/4/4
f 4/4/4 28/28/28 29/29/29
f 4/4/4 29/29/29 5/5/5
f 5/5/5 29/29/29 30/30/30
f 5/5/5 30/30/30 6/6/6
f 6/6/6 30/30/30 31/31/31
f 6/6/6 31/31/31 7/7/7
f 7/7/7 31/31/31 32/32/32
f 7/7/7 32/32/32 8/8/8
f 8/8/8 32/32/32 33/33/33
f 8/8/8 33/33/33 9/9/9
f 9/9/9 33/33/33 34/34/34
f 9/9/9 34/34/34 10/10/10
f 10/10/10 34/34/34 35/35/35
f 10/10/10 35/35/35 11/11/11
f 11/11/11 35/35/35 36/36/36
f 11/11/11 36/36/36 12/12/12
f 12/12/12 36/36/36 37/37/37
f 12/12/12 37/37/37 13/13/13
f 13/13/13 37/37/37 38/38/38
f 13/13/13 38/38/38 14/14/14
f 14/14/14 38/38/38 39/39/39
f 14/14/14 39/39/39 15/15/15
f 15/15/15 39/39/39 40/40/40
f 15/15/15 40/40/40 16/16/16
f 16/16/16 40/40/40 41/41/41
f 16/16/16 41/41/41 17/17/17
f 17/17/17 41/41/41 42/42/42
f 17/17/17 42/42/42 18/18/18
f 18/18/18 42/42/42 43/43/43
f 18/18/18 43/43/43 19/19/19
f 19/19/19 43/43/43 44/44/44
f 19/19/19 44/44/44 20/20/20
f 20/20/20 44/44/44 45/45/45
f 20/20/20 45/45/45 21/21/21
f 21/21/21 45/45/45 46/46/46
f 21/21/21 46/46/46 22/22/22
f 22/22/22 46/46/46 47/47/47
f 22/22/22 47/47/47 23/23/23
f 23/23/23 47/47/47 48/48/48
f 23/23/23 48/48/48 24/24/24
f 24/24/24 48/48/48 25/25/25
f 24/24/24 25/25/25 1/1/1
f 25/25/25 49/49/49 50/50/50
f 25/25/25 50/50/50 26/26/26
f 26/26/26 50/50/50 51/51/51
f 26/26/26 51/51/51 27/27/27
f 27/27/27 51/51/51 52/52/52
f 27/27/27 52/52/52 28/28/28
f 28/28/28 52/52/52 53/53/53
f 28/28/28 53/53/53 29/29/29
f 29/29/29 53/53/53 54/54/54
f 29/29/29 54/54/54 30/30/30
f 30/30/30 54/54/54 55/55/55
f 30/30/30 55/55/55 31/31/31
f 31/31/31 55/55/55 56/56/56
f 31/31/31 56/56/56 32/32/32
f 32/32/32 56/56/56 57/57/57
f 32/32/32 57/57/57 33/33/33
f 33/33/33 57/57/57 58/58/58
f 33/33/33 58/58/58 34/34/34
f 34/34/34 58/58/58 59/59/59
f 34/34/34 59/59/59 35/35/35
f 35/35/35 59/59/59 60/60/60
f 35/35/35 60/60/60 36/36/36
f 36/36/36 60/60/60 61/61/61
f 36/36/36 61/61/61 37/37/37
f 37/37/37 61/61/61 62/62/62
f 37/37/37 62/62/62 38/38/38
f 38/38/38 62/62/62 63/63/63
f 38/38/38 63/63/63 39/39/39
f 39/39/39 63/63/63 64/64/64
f 39/39/39 64/64/64 40/40/40
f 40/40/40 64/64/64 65/65/65
f 40/40/40 65/65/65 41/41/41
f 41/41/41 65/65/65 66/66/66
f 41/41/41 66/66/66 42/42/42
f 42/42/42 66/66/66 67/67/67
f 42/42/42 67/67/67 43/43/43
f 43/43/43 67/67/67 68/68/68
f 43/43/43 68/68/68 44/44/44
f 44/44/44 68/68/68 69/69/69
f 44/44/44 69/69/69 45/45/45
f 45/45/45 69/69/69 70/70/70
f 45/45/45 70/70/70 46/46/46
f 46/46/46 70/70/70 71/71/71
f 46/46/46 71/71/71 47/47/47
f 47/47/47 71/71/71 72/72/72
f 47/47/47 72/72/72 48/48/48
f 48/48/48 72/72/72 49/49/49
f 48/48/48 49/49/49 25/25/25
f 49/49/49 73/73/73 74/74/74
f 49/49/49 74/74/74 50/50/50
f 50/50/50 74/74/74 75/75/75
f 50/50/50 75/75/75 51/51/51
f 51/51/51 75/75/75 76/76/76
f 51/51/51 76/76/76 52/52/52
f 52/52/52 76/76/76 77/77/77
f 52/52/52 77/77/77 53/53/53
f 53/53/53 77/77/77 78/78/78
f 53/53/53 78/78/78 54/54/54
f 54/54/54 78/78/78 79/79/79
f 54/54/54 79/79/79 55/55/55
f 55/55/55 79/79/79 80/80/80
f 55/55/55 80/80/80 56/56/56
f 56/56/56 80/80/80 81/81/81
f 56/56/56 81/81/81 57/57/57
f 57/57/57 81/81/81 82/82/82
f 57/57/57 82/82/82 58/58/58
f 58/58/58 82/82/82 83/83/83
f 58/58/58 83/83/83 59/59/59
f 59/59/59 83/83/83 84/84/84
f 59/59/59 84/84/84 60/60/60
f 60/60/60 84/84/84 85/85/85
f 60/60/60 85/85/85 61/61/61
f 61/61/61 85/85/85 86/86/86
f 61/61/61 86/86/86 62/62/62
f 62/62/62 86/86/86 87/87/87
f 62/62/62 87/87/87 63/63/63
f 63/63/63 87/87/87 88/88/88
f 63/63/63 88/88/88 64/64/64
f 64/64/64 88/88/88 89/89/89
f 64/64/64 89/89/89 65/65/65
f 65/65/65 89/89/89 90/90/90
f 65/65/65 90/90/90 66/66/66
f 66/66/66 90/90/90 91/91/91
f 66/66/66 91/91/91 67/67/67
f 67/67/67 91/91/91 92/92/92
f 67/67/67 92/92/92 68/68/68
f 68/68/68 92/92/92 93/93/93
f 68/68/68 93/93/93 69/69/69
f 69/69/69 93/93/93 94/94/94
f 69/69/69 94/94/94 70/70/70
f 70/70/70 94/94/94 95/95/95
f 70/70/70 95/95/95 71/71/71
f 71/71/71 95/95/95 96/96/96
f 71/71/71 96/96/96 72/72/72
f 72/72/72 96/96/96 73/73/73
f 72/72/72 73/73/73 49/49/49
f 73/73/73 97/97/97 98/98/98
f 73/73/73 98/98/98 74/74/74
f 74/74/74 98/98/98 99/99/99
f 74/74/74 99/99/99 75/75/75
f 75/75/75 99/99/99 100/100/100
f 75/75/75 100/100/100 76/76/76
f 76/76/76 100/100/100 101/101/101
f 76/76/76 101/101/101 77/77/77
f 77/77/77 101/101/101 102/102/102
f 77/77/77 102/102/102 78/78/78
f 78/78/78 102/102/102 103/103/103
f 78/78/78 103/103/103 79/79/79
f 79/79/79 103/103/103 104/104/104
f 79/79/79 104/104/104 80/80/80
f 80/80/80 104/104/104 105/105/105
f 80/80/80 105/105/105 81/81/81
f 81/81/81 105/105/105 106/106/106
f 81/81/81 106/106/106 82/82/82
f 82/82/82 106/106/106 107/107/107
f 82/82/82 107/107/107 83/83/83
f 83/83/83 107/107/107 108/108/108
f 83/83/83 108/108/108 84/84/84
f 84/84/84 108/108/108 109/109/109
f 84/84/84 109/109/109 85/85/85
f 85/85/85 109/109/109 110/110/110
f 85/85/85 110/110/110 86/86/86
f 86/86/86 110/110/110 111/111/111
f 86/86/86 111/111/111 87/87/87
f 87/87/87 111/111/111 112/112/112
f 87/87/87 112/112/112 88/88/88
f 88/88/88 112/112/112 113/113/113
f 88/88/88 113/113/113 89/89/89
f 89/89/89 113/113/113 114/114/114
f 89/89/89 114/114/114 90/90/90
f 90/90/90 114/114/114 115/115/115
f 90/90/90 115/115/115 91/91/91
f 91/91/91 115/115/115 116/116/116
f 91/91/91 116/116/116 92/92/92
f 92/92/92 116/116/116 117/117/117
f 92/92/92 117/117/117 93/93/93
f 93/93/93 117/117/117 118/118/118
f 93/93/93 118/118/118 94/94/94
f 94/94/94 118/118/118 119/119/119
f 94/94/94 119/119/119 95/95/95
f 95/95/95 119/119/119 120/120/120
f 95/95/95 120/120/120 96/96/96
f 96/96/96 120/120/120 97/97/97
f 96/96/96 97/97/97 73/73/73
f 97/97/97 121/121/121 122/122/122
f 97/97/97 122/122/122 98/98/98
f 98/98/98 122/122/122 123/123/123
f 98/98/98 123/123/123 99/99/99
f 99/99/99 123/123/123 124/124/124
f 99/99/99 124/124/124 100/100/100
f 100/100/100 124/124/124 125/125/125
f 100/100/100 125/125/125 101/101/101
f 101/101/101 125/125/125 126/126/126
f 101/101/101 126/126/126 102/102/102
f 102/102/102 126/126/126 127/127/127
f 102/102/102 127/127/127 103/103/103
f 103/103/103 127/127/127 128/128/128
f 103/103/103 128/128/128 104/104/104
f 104/104/104 128/128/128 129/129/129
f 104/104/104 129/129/129 105/105/105
f 105/105/105 129/129/129 130/130/130
f 105/105/105 130/130/130 106/106/106
f 106/106/106 130/130/130 131/131/131
f 106/106/106 131/131/131 107/107/107
f 107/107/107 131/131/131 132/132/132
f 107/107/107 132/132/132 108/108/108
f 108/108/108 132/132/132 133/133/133
f 108/108/108 133/133/133 109/109/109
f 109/109/109 133/133/133 134/134/134
f 109/109/109 134/134/134 110/110/110
f 110/110/110 134/134/134 135/135/135
f 110/110/110 135/135/135 111/111/111
f 111/111/111 135/135/135 136/136/136
f 111/111/111 136/136/136 112/112/112
f 112/112/112 136/136/136 137/137/137
f 112/112/112 137/137/137 113/113/113
f 113/113/113 137/137/137 138/138/138
f 113/113/113 138/138/138 114/114/114
f 114/114/114 138/138/138 139/139/139
f 114/114/114 139/139/139 115/115/115
f 115/115/115 139/139/139 140/140/140
f 115/115/115 140/140/140 116/116/116
f 116/116/116 140/140/140 141/141/141
f 116/116/116 141/141/141 117/117/117
f 117/117/117 141/141/141 142/142/142
f 117/117/117 142/142/142 118/118/118
f 118/118/118 142/142/142 143/143/143
f 118/118/118 143/143/143 119/119/119
f 119/119/119 143/143/143 144/144/144
f 119/119/119 144/144/144 120/120/120
f 120/120/120 144/144/144 121/121/121
f 120/120/120 121/121/121 97/97/97
f 121/121/121 145/145/145 146/146/146
f 121/121/121 146/146/146 122/122/122
f 122/122/122 146/146/146 147/147/147
f 122/122/122 147/147/147 123/123/123
f 123/123/123 147/147/147 148/148/148
f 123/123/123 148/148/148 124/124/124
f 124/124/124 148/148/148 149/149/149
f 124/124/124 149/149/149 125/125/125
f 125/125/125 149/149/149 150/150/150
f 125/125/125 150/150/150 126/126/126
f 126/126/126 150/150/150 151/151/151
f 126/126/126 151/151/151 127/127/127
f 127/127/127 151/151/151 152/152/152
f 127/127/127 152/152/152 128/128/128
f 128/128/128 152/152/152 153/153/153
f 128/128/128 153/153/153 129/129/129
f 129/129/129 153/153/153 154/154/154
f 129/129/129 154/154/154 130/130/130
f 130/130/130 154/154/154 155/155/155
f 130/130/130 155/155/155 131/131/131
f 131/131/131 155/155/155 156/156/156
f 131/131/131 156/156/156 132/132/132
f 132/132/132 156/156/156 157/157/157
f 132/132/132 157/157/157 133/133/133
f 133/133/133 157/157/157 158/158/158
f 133/133/133 158/158/158 134/134/134
f 134/134/134 158/158/158 159/159/159
f 134/134/134 159/159/159 135/135/135
f 135/135/135 159/159/159 160/160/160
f 135/135/135 160/160/160 136/136/136
f 136/136/136 160/160/160 161/161/161
f 136/136/136 161/161/161 137/137/137
f 137/137/137 161/161/161 162/162/162
f 137/137/137 162/162/162 138/138/138
f 138/138/138 162/162/162 163/163/163
f 138/138/138 163/163/163 139/139/139
f 139/139/139 163/163/163 164/164/164
f 139/139/139 164/164/164 140/140/140
f 140/140/140 164/164/164 165/165/165
f 140/140/140 165/165/165 141/141/141
f 141/141/141 165/165/165 166/166/166
f 141/141/141 166/166/166 142/142/142
f 142/142/142 166/166/166 167/167/167
f 142/142/142 167/167/167 143/143/143
f 143/143/143 167/167/167 168/168/168
f 143/143/143 168/168/168 144/144/144
f 144/144/144 168/168/168 145/145/145
f 144/144/144 145/145/145 121/121/121
f 169/169/169 185/185/185 186/186/186
f 169/169/169 186/186/186 170/170/170
f 170/170/170 186/186/186 187/187/187
f 170/170/170 187/187/187 171/171/171
f 171/171/171 187/187/187 188/188/188
f 171/171/171 188/188/188 172/172/172
f 172/172/172 188/188/188 189/189/189
f 172/172/172 189/189/189 173/173/173
f 173/173/173 189/189/189 190/190/190
f 173/173/173 190/190/190 174/174/174
f 174/174/174 190/190/190 191/191/191
f 174/174/174 191/191/191 175/175/175
f 175/175/175 191/191/191 192/192/192
f 175/175/175 192/192/192 176/176/176
f 176/176/176 192/192/192 193/193/193
f 176/176/176 193/193/193 177/177/177
f 177/177/177 193/193/193 194/194/194
f 177/177/177 194/194/194 178/178/178
f 178/178/178 194/194/194 195/195/195
f 178/178/178 195/195/195 179/179/179
f 179/179/179 195/195/195 196/196/196
f 179/179/179 196/196/196 180/180/180
f 180/180/180 196/196/196 197/197/197
f 180/180/180 197/197/197 181/181/181
f 181/181/181 197/197/197 198/198/198
f 181/181/181 198/198/198 182/182/182
f 182/182/182 198/198/198 199/199/199
f 182/182/182 199/199/199 183/183/183
f 183/183/183 199/199/199 200/200/200
f 183/183/183 200/200/200 184/184/184
f 184/184/184 200/200/200 185/185/185
f 184/184/184 185/185/185 169/169/169
f 185/185/185 201/201/201 202/202/202
f 185/185/185 202/202/202 186/186/186
f 186/186/186 202/202/202 203/203/203
f 186/186/186 203/203/203 187/187/187
f 187/187/187 203/203/203 204/204/204
f 187/187/187 204/204/204 188/188/188
f 188/188/188 204/204/204 205/205/205
f 188/188/188 205/205/205 189/189/189
f 189/189/189 205/205/205 206/206/206
f 189/189/189 206/206/206 190/190/190
f 190/190/190 206/206/206 207/207/207
f 190/190/190 207/207/207 191/191/191
f 191/191/191 207/207/207 208/208/208
f 191/191/191 208/208/208 192/192/192
f 192/192/192 208/208/208 209/209/209
f 192/192/192 209/209/209 193/193/193
f 193/193/193 209/209/209 210/210/210
f 193/193/193 210/210/210 194/194/194
f 194/194/194 210/210/210 211/211/211
f 194/194/194 211/211/211 195/195/195
f 195/195/195 211/211/211 212/212/212
f 195/195/195 212/212/212 196/196/196
f 196/196/196 212/212/212 213/213/213
f 196/196/196 213/213/213 197/197/197
f 197/197/197 213/213/213 214/214/214
f 197/197/197 214/214/214 198/198/198
f 198/198/198 214/214/214 215/215/215
f 198/198/198 215/215/215 199/199/199
f 199/199/199 215/215/215 216/216/216
f 199/199/199 216/216/216 200/200/200
f 200/200/200 216/216/216 201/201/201
f 200/200/200 201/201/201 185/185/185
f 201/201/201 217/217/217 218/218/218
f 201/201/201 218/218/218 202/202/202
f 202/202/202 218/218/218 219/219/219
f 202/202/202 219/219/219 203/203/203
f 203/203/203 219/219/219 220/220/220
f 203/203/203 220/220/220 204/204/204
f 204/204/204 220/220/220 221/221/221
f 204/204/204 221/221/221 205/205/205
f 205/205/205 221/221/221 222/222/222
f 205/205/205 222/222/222 206/206/206
f 206/206/206 222/222/222 223/223/223
f 206/206/206 223/223/223 207/207/207
f 207/207/207 223/223/223 224/224/224
f 207/207/207 224/224/224 208/208/208
f 208/208/208 224/224/224 225/225/225
f 208/208/208 225/225/225 209/209/209
f 209/209/209 225/225/225 226/226/226
f 209/209/209 226/226/226 210/210/210
f 210/210/210 226/226/226 227/227/227
f 210/210/210 227/227/227 211/211/211
f 211/211/211 227/227/227 228/228/228
f 211/211/211 228/228/228 212/212/212
f 212/212/212 228/228/228 229/229/229
f 212/212/212 229/229/229 213/213/213
f 213/213/213 229/229/229 230/230/230
f 213/213/213 230/230/230 214/214/214
f 214/214/214 230/230/230 231/231/231
f 214/214/214 231/231/231 215/215/215
f 215/215/215 231/231/231 232/232/232
f 215/215/215 232/232/232 216/216/216
f 216/216/216 232/232/232 217/217/217
f 216/216/216 217/217/217 201/201/201
f 217/217/217 233/233/233 234/234/234
f 217/217/217 234/234/234 218/218/218
f 218/218/218 234/234/234 235/235/235
f 218/218/218 235/235/235 219/219/219
f 219/219/219 235/235/235 236/236/236
f 219/219/219 236/236/236 220/220/220
f 220/220/220 236/236/236 237/237/237
f 220/220/220 237/237/237 221/221/221
f 221/221/221 237/237/237 238/238/238
f 221/221/221 238/238/238 222/222/222
f 222/222/222 238/238/238 239/239/239
f 222/222/222 239/239/239 223/223/223
f 223/223/223 239/239/239 240/240/240
f 223/223/223 240/240/240 224/224/224
f 224/224/224 240/240/240 241/241/241
f 224/224/224 241/241/241 225/225/225
f 225/225/225 241/241/241 242/242/242
f 225/225/225 242/242/242 226/226/226
f 226/226/226 242/242/242 243/243/243
f 226/226/226 243/243/243 227/227/227
f 227/227/227 243/243/243 244/244/244
f 227/227/227 244/244/244 228/228/228
f 228/228/228 244/244/244 245/245/245
f 228/228/228 245/245/245 229/229/229
f 229/229/229 245/245/245 246/246/246
f 229/229/229 246/246/246 230/230/230
f 230/230/230 246/246/246 247/247/247
f 230/230/230 247/247/247 231/231/231
f 231/231/231 247/247/247 248/248/248
f 231/231/231 248/248/248 232/232/232
f 232/232/232 248/248/248 233/233/233
f 232/232/232 233/233/233 217/217/217
f 233/233/233 249/249/249 250/250/250
f 233/233/233 250/250/250 234/234/234
f 234/234/234 250/250/250 251/251/251
f 234/234/234 251/251/251 235/235/235
f 235/235/235 251/251/251 252/252/252
f 235/235/235 252/252/252 236/236/236
f 236/236/236 252/252/252 253/253/253
f 236/236/236 253/253/253 237/237/237
f 237/237/237 253/253/253 254/254/254
f 237/237/237 254/254/254 238/238/238
f 238/238/238 254/254/254 255/255/255
f 238/238/238 255/255/255 239/239/239
f 239/239/239 255/255/255 256/256/256
f 239/239/239 256/256/256 240/240/240
f 240/240/240 256/256/256 257/257/257
f 240/240/240 257/257/257 241/241/241
f 241/241/241 257/257/257 258/258/258
f 241/241/241 258/258/258 242/242/242
f 242/242/242 258/258/258 259/259/259
f 242/242/242 259/259/259 243/243/243
f 243/243/243 259/259/259 260/260/260
f 243/243/243 260/260/260 244/244/244
f 244/244/244 260/260/260 261/261/261
f 244/244/244 261/261/261 245/245/245
f 245/245/245 261/261/261 262/262/262
f 245/245/245 262/262/262 246/246/246
f 246/246/246 262/262/262 263/263/263
f 246/246/246 263/263/263 247/247/247
f 247/247/247 263/263/263 264/264/264
f 247/247/247 264/264/264 248/248/248
f 248/248/248 264/264/264 249/249/249
f 248/248/248 249/249/249 233/233/233
f 265/265/265 281/281/281 282/282/282
f 265/265/265 282/282/282 266/266/266
f 266/266/266 282/282/282 283/283/283
f 266/266/266 283/283/283 267/267/267
f 267/267/267 283/283/283 284/284/284
f 267/267/267 284/284/284 268/268/268
f 268/268/268 284/284/284 285/285/285
f 268/268/268 285/285/285 269/269/269
f 269/269/269 285/285/285 286/286/286
f 269/269/269 286/286/286 270/270/270
f 270/270/270 286/286/286 287/287/287
f 270/270/270 287/287/287 271/271/271
f 271/271/271 287/287/287 288/288/288
f 271/271/271 288/288/288 272/272/272
f 272/272/272 288/288/288 289/289/289
f 272/272/272 289/289/289 273/273/273
f 273/273/273 289/289/289 290/290/290
f 273/273/273 290/290/290 274/274/274
f 274/274/274 290/290/290 291/291/291
f 274/274/274 291/291/291 275/275/275
f 275/275/275 291/291/291 292/292/292
f 275/275/275 292/292/292 276/276/276
f 276/276/276 292/292/292 293/293/293
f 276/276/276 293/293/293 277/277/277
f 277/277/277 293/293/293 294/294/294
f 277/277/277 294/294/294 278/278/278
f 278/278/278 294/294/294 295/295/295
f 278/278/278 295/295/295 279/279/279
f 279/279/279 295/295/295 296/296/296
f 279/279/279 296/296/296 280/280/280
f 280/280/280 296/296/296 281/281/281
f 280/280/280 281/281/281 265/265/265
f 281/281/281 297/297/297 298/298/298
f 281/281/281 298/298/298 282/282/282
f 282/282/282 298/298/298 299/299/299
f 282/282/282 299/299/299 283/283/283
f 283/283/283 299/299/299 300/300/300
f 283/283/283 300/300/300 284/284/284
f 284/284/284 300/300/300 301/301/301
f 284/284/284 301/301/301 285/285/285
f 285/285/285 301/301/301 302/302/302
f 285/285/285 302/302/302 286/286/286
f 286/286/286 302/302/302 303/303/303
f 286/286/286 303/303/303 287/287/287
f 287/287/287 303/303/303 304/304/304
f 287/287/287 304/304/304 288/288/288
f 288/288/288 304/304/304 305/305/305
f 288/288/288 305/305/305 289/289/289
f 289/289/289 305/305/305 306/306/306
f 289/289/289 306/306/306 290/290/290
f 290/290/290 306/306/306 307/307/307
f 290/290/290 307/307/307 291/291/291
f 291/291/291 307/307/307 308/308/308
f 291/291/291 308/308/308 292/292/292
f 292/292/292 308/308/308 309/309/309
f 292/292/292 309/309/309 293/293/293
f 293/293/293 309/309/309 310/310/310
f 293/293/293 310/310/310 294/294/294
f 294/294/294 310/310/310 311/311/311
f 294/294/294 311/311/311 295/295/295
f 295/295/295 311/311/311 312/312/312
f 295/295/295 312/312/312 296/296/296
f 296/296/296 312/312/312 297/297/297
f 296/296/296 297/297/297 281/281/281
f 297/297/297 313/313/313 314/314/314
f 297/297/297 314/314/314 298/298/298
f 298/298/298 314/314/314 315/315/315
f 298/298/298 315/315/315 299/299/299
f 299/299/299 315/315/315 316/316/316
f 299/299/299 316/316/316 300/300/300
f 300/300/300 316/316/316 317/317/317
f 300/300/300 317/317/317 301/301/301
f 301/301/301 317/317/317 318/318/318
f 301/301/301 318/318/318 302/302/302
f 302/302/302 318/318/318 319/319/319
f 302/302/302 319/319/319 303/303/303
f 303/303/303 319/319/319 320/320/320
f 303/303/303 320/320/320 304/304/304
f 304/304/304 320/320/320 321/321/321
f 304/304/304 321/321/321 305/305/305
f 305/305/305 321/321/321 322/322/322
f 305/305/305 322/322/322 306/306/306
f 306/306/306 322/322/322 323/323/323
f 306/306/306 323/323/323 307/307/307
f 307/307/307 323/323/323 324/324/324
f 307/307/307 324/324/324 308/308/308
f 308/308/308 324/324/324 325/325/325
f 308/308/308 325/325/325 309/309/309
f 309/309/309 325/325/325 326/326/326
f 309/309/309 326/326/326 310/310/310
f 310/310/310 326/326/326 327/327/327
f 310/310/310 327/327/327 311/311/311
f 311/311/311 327/327/327 328/328/328
f 311/311/311 328/328/328 312/312/312
f 312/312/312 328/328/328 313/313/313
f 312/312/312 313/313/313 297/297/297
f 313/313/313 329/329/329 330/330/330
f 313/313/313 330/330/330 314/314/314
f 314/314/314 330/330/330 331/331/331
f 314/314/314 331/331/331 315/315/315
f 315/315/315 331/331/331 332/332/332
f 315/315/315 332/332/332 316/316/316
f 316/316/316 332/332/332 333/333/333
f 316/316/316 333/333/333 317/317/317
f 317/317/317 333/333/333 334/334/334
f 317/317/317 334/334/334 318/318/318
f 318/318/318 334/334/334 335/335/335
f 318/318/318 335/335/335 319/319/319
f 319/319/319 335/335/335 336/336/336
f 319/319/319 336/336/336 320/320/320
f 320/320/320 336/336/336 337/337/337
f 320/320/320 337/337/337 321/321/321
f 321/321/321 337/337/337 338/338/338
f 321/321/321 338/338/338 322/322/322
f 322/322/322 338/338/338 339/339/339
f 322/322/322 339/339/339 323/323/323
f 323/323/323 339/339/339 340/340/340
f 323/323/323 340/340/340 324/324/324
f 324/324/324 340/340/340 341/341/341
f 324/324/324 341/341/341 325/325/325
f 325/325/325 341/341/341 342/342/342
f 325/325/325 342/342/342 326/326/326
f 326/326/326 342/342/342 343/343/343
f 326/326/326 343/343/343 327/327/327
f 327/327/327 343/343/343 344/344/344
f 327/327/327 344/344/344 328/328/328
f 328/328/328 344/344/344 329/329/329
f 328/328/328 329/329/329 313/313/313
f 329/329/329 345/345/345 346/346/346
f 329/329/329 346/346/346 330/330/330
f 330/330/330 346/346/346 347/347/347
f 330/330/330 347/347/347 331/331/331
f 331/331/331 347/347/347 348/348/348
f 331/331/331 348/348/348 332/332/332
f 332/332/332 348/348/348 349/349/349
f 332/332/332 349/349/349 333/333/333
f 333/333/333 349/349/349 350/350/350
f 333/333/333 350/350/350 334/334/334
f 334/334/334 350/350/350 351/351/351
f 334/334/334 351/351/351 335/335/335
f 335/335/335 351/351/351 352/352/352
f 335/335/335 352/352/352 336/336/336
f 336/336/336 352/352/352 353/353/353
f 336/336/336 353/353/353 337/337/337
f 337/337/337 353/353/353 354/354/354
f 337/337/337 354/354/354 338/338/338
f 338/338/338 354/354/354 355/355/355
f 338/338/338 355/355/355 339/339/339
f 339/339/339 355/355/355 356/356/356
f 339/339/339 356/356/356 340/340/340
f 340/340/340 356/356/356 357/357/357
f 340/340/340 357/357/357 341/341/341
f 341/341/341 357/357/357 358/358/358
f 341/341/341 358/358/358 342/342/342
f 342/342/342 358/358/358 359/359/359
f 342/342/342 359/359/359 343/343/343
f 343/343/343 359/359/359 360/360/360
f 343/343/343 360/360/360 344/344/344
f 344/344/344 360/360/360 345/345/345
f 344/344/344 345/345/345 329/329/329
f 361/361/361 377/377/377 378/378/378
f 361/361/361 378/378/378 362/362/362
f 362/362/362 378/378/378 379/379/379
f 362/362/362 379/379/379 363/363/363
f 363/363/363 379/379/379 380/380/380
f 363/363/363 380/380/380 364/364/364
f 364/364/364 380/380/380 381/381/381
f 364/364/364 381/381/381 365/365/365
f 365/365/365 381/381/381 382/382/382
f 365/365/365 382/382/382 366/366/366
f 366/366/366 382/382/382 383/383/383
f 366/366/366 383/383/383 367/367/367
f 367/367/367 383/383/383 384/384/384
f 367/367/367 384/384/384 368/368/368
f 368/368/368 384/384/384 385/385/385
f 368/368/368 385/385/385 369/369/369
f 369/369/369 385/385/385 386/386/386
f 369/369/369 386/386/386 370/370/370
f 370/370/370 386/386/386 387/387/387
f 370/370/370 387/387/387 371/371/371
f 371/371/371 387/387/387 388/388/388
f 371/371/371 388/388/388 372/372/372
f 372/372/372 388/388/388 389/389/389
f 372/372/372 389/389/389 373/373/373
f 373/373/373 389/389/389 390/390/390
f 373/373/373 390/390/390 374/374/374
f 374/374/374 390/390/390 391/391/391
f 374/374/374 391/391/391 375/375/375
f 375/375/375 391/391/391 392/392/392
f 375/375/375 392/392/392 376/376/376
f 376/376/376 392/392/392 377/377/377
f 376/376/376 377/377/377 361/361/361
f 377/377/377 393/393/393 394/394/394
f 377/377/377 394/394/394 378/378/378
f 378/378/378 394/394/394 395/395/395
f 378/378/378 395/395/395 379/379/379
f 379/379/379 395/395/395 396/396/396
f 379/379/379 396/396/396 380/380/380
f 380/380/380 396/396/396 397/397/397
f 380/380/380 397/397/397 381/381/381
f 381/381/381 397/397/397 398/398/398
f 381/381/381 398/398/398 382/382/382
f 382/382/382 398/398/398 399/399/399
f 382/382/382 399/399/399 383/383/383
f 383/383/383 399/399/399 400/400/400
f 383/383/383 400/400/400 384/384/384
f 384/384/384 400/400/400 401/401/401
f 384/384/384 401/401/401 385/385/385
f 385/385/385 401/401/401 402/402/402
f 385/385/385 402/402/402 386/386/386
f 386/386/386 402/402/402 403/403/403
f 386/386/386 403/403/403 387/387/387
f 387/387/387 403/403/403 404/404/404
f 387/387/387 404/404/404 388/388/388
f 388/388/388 404/404/404 405/405/405
f 388/388/388 405/405/405 389/389/389
f 389/389/389 405/405/405 406/406/406
f 389/389/389 406/406/406 390/390/390
f 390/390/390 406/406/406 407/407/407
f 390/390/390 407/407/407 391/391/391
f 391/391/391 407/407/407 408/408/408
f 391/391/391 408/408/408 392/392/392
f 392/392/392 408/408/408 393/393/393
f 392/392/392 393/393/393 377/377/377
f 393/393/393 409/409/409 410/410/410
f 393/393/393 410/410/410 394/394/394
f 394/394/394 410/410/410 411/411/411
f 394/394/394 411/411/411 395/395/395
f 395/395/395 411/411/411 412/412/412
f 395/395/395 412/412/412 396/396/396
f 396/396/396 412/412/412 413/413/413
f 396/396/396 413/413/413 397/397/397
f 397/397/397 413/413/413 414/414/414
f 397/397/397 414/414/414 398/398/398
f 398/398/398 414/414/414 415/415/415
f 398/398/398 415/415/415 399/399/399
f 399/399/399 415/415/415 416/416/416
f 399/399/399 416/416/416 400/400/400
f 400/400/400 416/416/416 417/417/417
f 400/400/400 417/417/417 401/401/401
f 401/401/401 417/417/417 418/418/418
f 401/401/401 418/418/418 402/402/402
f 402/402/402 418/418/418 419/419/419
f 402/402/402 419/419/419 403/403/403
f 403/403/403 419/419/419 420/420/420
f 403/403/403 420/420/420 404/404/404
f 404/404/404 420/420/420 421/421/421
f 404/404/404 421/421/421 405/405/405
f 405/405/405 421/421/421 422/422/422
f 405/405/405 422/422/422 406/406/406
f 406/406/406 422/422/422 423/423/423
f 406/406/406 423/423/423 407/407/407
f 407/407/407 423/423/423 424/424/424
f 407/407/407 424/424/424 408/408/408
f 408/408/408 424/424/424 409/409/409
f 408/408/408 409/409/409 393/393/393
f 409/409/409 425/425/425 426/426/426
f 409/409/409 426/426/426 410/410/410
f 410/410/410 426/426/426 427/427/427
f 410/410/410 427/427/427 411/411/411
f 411/411/411 427/427/427 428/428/428
f 411/411/411 428/428/428 412/412/412
f 412/412/412 428/428/428 429/429/429
f 412/412/412 429/429/429 413/413/413
f 413/413/413 429/429/429 430/430/430
f 413/413/413 430/430/430 414/414/414
f 414/414/414 430/430/430 431/431/431
f 414/414/414 431/431/431 415/415/415
f 415/415/415 431/431/431 432/432/432
f 415/415/415 432/432/432 416/416/416
f 416/416/416 432/432/432 433/433/433
f 416/416/416 433/433/433 417/417/417
f 417/417/417 433/433/433 434/434/434
f 417/417/417 434/434/434 418/418/418
f 418/418/418 434/434/434 435/435/435
f 418/418/418 435/435/435 419/419/419
f 419/419/419 435/435/435 436/436/436
f 419/419/419 436/436/436 420/420/420
f 420/420/420 436/436/436 437/437/437
f 420/420/420 437/437/437 421/421/421
f 421/421/421 437/437/437 438/438/438
f 421/421/421 438/438/438 422/422/422
f 422/422/422 438/438/438 439/439/439
f 422/422/422 439/439/439 423/423/423
f 423/423/423 439/439/439 440/440/440
f 423/423/423 440/440/440 424/424/424
f 424/424/424 440/440/440 425/425/425
f 424/424/424 425/425/425 409/409/409
f 425/425/425 441/441/441 442/442/442
f 425/425/425 442/442/442 426/426/426
f 426/426/426 442/442/442 443/443/443
f 426/426/426 443/443/443 427/427/427
f 427/427/427 443/443/443 444/444/444
f 427/427/427 444/444/444 428/428/428
f 428/428/428 444/444/444 445/445/445
f 428/428/428 445/445/445 429/429/429
f 429/429/429 445/445/445 446/446/446
f 429/429/429 446/446/446 430/430/430
f 430/430/430 446/446/446 447/447/447
f 430/430/430 447/447/447 431/431/431
f 431/431/431 447/447/447 448/448/448
f 431/431/431 448/448/448 432/432/432
f 432/432/432 448/448/448 449/449/449
f 432/432/432 449/449/449 433/433/433
f 433/433/433 449/449/449 450/450/450
f 433/433/433 450/450/450 434/434/434
f 434/434/434 450/450/450 451/451/451
f 434/434/434 451/451/451 435/435/435
f 435/435/435 451/451/451 452/452/452
f 435/435/435 452/452/452 436/436/436
f 436/436/436 452/452/452 453/453/453
f 436/436/436 453/453/453 437/437/437
f 437/437/437 453/453/453 454/454/454
f 437/437/437 454/454/454 438/438/438
f 438/438/438 454/454/454 455/455/455
f 438/438/438 455/455/455 439/439/439
f 439/439/439 455/455/455 456/456/456
f 439/439/439 456/456/456 440/440/440
f 440/440/440 456/456/456 441/441/441
f 440/440/440 441/441/441 425/425/425
f 457/457/457 473/473/473 474/474/474
f 457/457/457 474/474/474 458/458/458
f 458/458/458 474/474/474 475/475/475
f 458/458/458 475/475/475 459/459/459
f 459/459/459 475/475/475 476/476/476
f 459/459/459 476/476/476 460/460/460
f 460/460/460 476/476/476 477/477/477
f 460/460/460 477/477/477 461/461/461
f 461/461/461 477/477/477 478/478/478
f 461/461/461 478/478/478 462/462/462
f 462/462/462 478/478/478 479/479/479
f 462/462/462 479/479/479 463/463/463
f 463/463/463 479/479/479 480/480/480
f 463/463/463 480/480/480 464/464/464
f 464/464/464 480/480/480 481/481/481
f 464/464/464 481/481/481 465/465/465
f 465/465/465 481/481/481 482/482/482
f 465/465/465 482/482/482 466/466/466
f 466/466/466 482/482/482 483/483/483
f 466/466/466 483/483/483 467/467/467
f 467/467/467 483/483/483 484/484/484
f 467/467/467 484/484/484 468/468/468
f 468/468/468 484/484/484 485/485/485
f 468/468/468 485/485/485 469/469/469
f 469/469/469 485/485/485 486/486/486
f 469/469/469 486/486/486 470/470/470
f 470/470/470 486/486/486 487/487/487
f 470/470/470 487/487/487 471/471/471
f 471/471/471 487/487/487 488/488/488
f 471/471/471 488/488/488 472/472/472
f 472/472/472 488/488/488 473/473/473
f 472/472/472 473/473/473 457/457/457
f 473/473/473 489/489/489 490/490/490
f 473/473/473 490/490/490 474/474/474
f 474/474/474 490/490/490 491/491/491
f 474/474/474 491/491/491 475/475/475
f 475/475/475 491/491/491 492/492/492
f 475/475/475 492/492/492 476/476/476
f 476/476/476 492/492/492 493/493/493
f 476/476/476 493/493/493 477/477/477
f 477/477/477 493/493/493 494/494/494
f 477/477/477 494/494/494 478/478/478
f 478/478/478 494/494/494 495/495/495
f 478/478/478 495/495/495 479/479/479
f 479/479/479 495/495/495 496/496/496
f 479/479/479 496/496/496 480/480/480
f 480/480/480 496/496/496 497/497/497
f 480/480/480 497/497/497 481/481/481
f 481/481/481 497/497/497 498/498/498
f 481/481/481 498/498/498 482/482/482
f 482/482/482 498/498/498 499/499/499
f 482/482/482 499/499/499 483/483/483
f 483/483/483 499/499/499 500/500/500
f 483/483/483 500/500/500 484/484/484
f 484/484/484 500/500/500 501/501/501
f 484/484/484 501/501/501 485/485/485
f 485/485/485 501/501/501 502/502/502
f 485/485/485 502/502/502 486/486/486
f 486/486/486 502/502/502 503/503/503
f 486/486/486 503/503/503 487/487/487
f 487/487/487 503/503/503 504/504/504
f 487/487/487 504/504/504 488/488/488
f 488/488/488 504/504/504 489/489/489
f 488/488/488 489/489/489 473/473/473
f 489/489/489 505/505/505 506/506/506
f 489/489/489 506/506/506 490/490/490
f 490/490/490 506/506/506 507/507/507
f 490/490/490 507/507/507 491/491/491
f 491/491/491 507/507/507 508/508/508
f 491/491/491 508/508/508 492/492/492
f 492/492/492 508/508/508 509/509/509
f 492/492/492 509/509/509 493/493/493
f 493/493/493 509/509/509 510/510/510
f 493/493/493 510/510/510 494/494/494
f 494/494/494 510/510/510 511/511/511
f 494/494/494 511/511/511 495/495/495
f 495/495/495 511/511/511 512/512/512
f 495/495/495 512/512/512 496/496/496
f 496/496/496 512/512/512 513/513/513
f 496/496/496 513/513/513 497/497/497
f 497/497/497 513/513/513 514/514/514
f 497/497/497 514/514/514 498/498/498
f 498/498/498 514/514/514 515/515/515
f 498/498/498 515/515/515 499/499/499
f 499/499/499 515/515/515 516/516/516
f 499/499/499 516/516/516 500/500/500
f 500/500/500 516/516/516 517/517/517
f 500/500/500 517/517/517 501/501/501
f 501/501/501 517/517/517 518/518/518
f 501/501/501 518/518/518 502/502/502
f 502/502/502 518/518/518 519/519/519
f 502/502/502 519/519/519 503/503/503
f 503/503/503 519/519/519 520/520/520
f 503/503/503 520/520/520 504/504/504
f 504/504/504 520/520/520 505/505/505
f 504/504/504 505/505/505 489/489/489
f 505/505/505 521/521/521 522/522/522
f 505/505/505 522/522/522 506/506/506
f 506/506/506 522/522/522 523/523/523
f 506/506/506 523/523/523 507/507/507
f 507/507/507 523/523/523 524/524/524
f 507/507/507 524/524/524 508/508/508
f 508/508/508 524/524/524 525/525/525
f 508/508/508 525/525/525 509/509/509
f 509/509/509 525/525/525 526/526/526
f 509/509/509 526/526/526 510/510/510
f 510/510/510 526/526/526 527/527/527
f 510/510/510 527/527/527 511/511/511
f 511/511/511 527/527/527 528/528/528
f 511/511/511 528/528/528 512/512/512
f 512/512/512 528/528/528 529/529/529
f 512/512/512 529/529/529 513/513/513
f 513/513/513 529/529/529 530/530/530
f 513/513/513 530/530/530 514/514/514
f 514/514/514 530/530/530 531/531/531
f 514/514/514 531/531/531 515/515/515
f 515/515/515 531/531/531 532/532/532
f 515/515/515 532/532/532 516/516/516
f 516/516/516 532/532/532 533/533/533
f 516/516/516 533/533/533 517/517/517
f 517/517/517 533/533/533 534/534/534
f 517/517/517 534/534/534 518/518/518
f 518/518/518 534/534/534 535/535/535
f 518/518/518 535/535/535 519/519/519
f 519/519/519 535/535/535 536/536/536
f 519/519/519 536/536/536 520/520/520
f 520/520/520 536/536/536 521/521/521
f 520/520/520 521/521/521 505/505/505
f 521/521/521 537/537/537 538/538/538
f 521/521/521 538/538/538 522/522/522
f 522/522/522 538/538/538 539/539/539
f 522/522/522 539/539/539 523/523/523
f 523/523/523 539/539/539 540/540/540
f 523/523/523 540/540/540 524/524/524
f 524/524/524 540/540/540 541/541/541
f 524/524/524 541/541/541 525/525/525
f 525/525/525 541/541/541 542/542/542
f 525/525/525 542/542/542 526/526/526
f 526/526/526 542/542/542 543/543/543
f 526/526/526 543/543/543 527/527/527
f 527/527/527 543/543/543 544/544/544
f 527/527/527 544/544/544 528/528/528
f 528/528/528 544/544/544 545/545/545
f 528/528/528 545/545/545 529/529/529
f 529/529/529 545/545/545 546/546/546
f 529/529/529 546/546/546 530/530/530
f 530/530/530 546/546/546 547/547/547
f 530/530/530 547/547/547 531/531/531
f 531/531/531 547/547/547 548/548/548
f 531/531/531 548/548/548 532/532/532
f 532/532/532 548/548/548 549/549/549
f 532/532/532 549/549/549 533/533/533
f 533/533/533 549/549/549 550/550/550
f 533/533/533 550/550/550 534/534/534
f 534/534/534 550/550/550 551/551/551
f 534/534/534 551/551/551 535/535/535
f 535/535/535 551/551/551 552/552/552
f 535/535/535 552/552/552 536/536/536
f 536/536/536 552/552/552 537/537/537
f 536/536/536 537/537/537 521/521/521
